<svg id="svg" xmlns="http://www.w3.org/2000/svg" xmlns:xlink="http://www.w3.org/1999/xlink" width="400" height="400" viewBox="0, 0, 400,400"><g id="svgg"><path id="path0" d="M185.800 26.431 C 181.081 26.768,178.553 27.064,178.089 27.335 C 177.839 27.481,174.231 27.953,171.800 28.157 C 171.360 28.193,170.770 28.367,170.488 28.543 C 170.207 28.718,169.307 28.920,168.488 28.992 C 165.282 29.272,162.591 29.714,162.400 29.990 C 162.290 30.150,161.480 30.378,160.600 30.497 C 158.435 30.791,157.839 30.948,157.581 31.292 C 157.461 31.453,156.651 31.674,155.781 31.784 C 153.459 32.079,151.853 32.451,151.400 32.801 C 151.180 32.971,150.235 33.236,149.300 33.390 C 148.365 33.544,147.600 33.834,147.600 34.035 C 147.600 34.236,147.251 34.400,146.824 34.400 C 146.397 34.400,145.953 34.552,145.838 34.739 C 145.723 34.925,145.070 35.093,144.387 35.113 C 143.703 35.132,142.932 35.312,142.672 35.512 C 142.413 35.712,141.340 36.108,140.290 36.393 C 139.239 36.677,138.283 37.065,138.166 37.255 C 138.049 37.445,137.598 37.600,137.164 37.600 C 136.730 37.600,136.265 37.885,136.132 38.234 C 135.936 38.744,135.823 38.763,135.550 38.334 C 135.297 37.934,135.211 37.926,135.206 38.300 C 135.203 38.575,134.834 38.800,134.387 38.800 C 133.941 38.800,133.476 39.059,133.354 39.375 C 133.233 39.691,132.912 39.864,132.641 39.760 C 132.369 39.656,131.619 39.846,130.974 40.183 C 130.328 40.520,129.575 40.796,129.300 40.798 C 129.025 40.799,128.800 40.966,128.800 41.168 C 128.800 41.371,128.269 41.653,127.619 41.796 C 126.970 41.938,125.416 42.578,124.165 43.218 C 122.915 43.857,121.708 44.267,121.484 44.128 C 121.251 43.984,121.198 44.074,121.362 44.338 C 121.527 44.605,121.406 44.800,121.078 44.800 C 120.764 44.800,120.034 45.173,119.454 45.629 C 118.874 46.085,118.400 46.343,118.400 46.202 C 118.400 46.061,117.905 46.294,117.300 46.720 C 116.695 47.146,115.795 47.621,115.300 47.774 C 114.805 47.928,114.400 48.186,114.400 48.347 C 114.400 48.508,113.770 48.867,113.000 49.146 C 112.230 49.424,111.600 49.820,111.600 50.026 C 111.600 50.232,111.358 50.400,111.061 50.400 C 110.765 50.400,110.107 50.760,109.600 51.200 C 109.093 51.640,108.518 52.000,108.323 52.000 C 107.956 52.000,105.832 53.420,104.883 54.299 C 104.587 54.574,103.907 54.909,103.372 55.043 C 102.837 55.177,102.400 55.452,102.400 55.653 C 102.400 55.855,101.950 56.191,101.400 56.400 C 100.850 56.609,100.400 56.965,100.400 57.190 C 100.400 57.416,100.124 57.600,99.787 57.600 C 99.451 57.600,99.074 57.863,98.950 58.185 C 98.827 58.506,98.404 58.872,98.011 58.997 C 97.617 59.122,96.923 59.533,96.468 59.912 C 96.013 60.290,95.162 60.960,94.578 61.400 C 93.994 61.840,92.997 62.679,92.362 63.265 C 91.727 63.851,91.027 64.391,90.807 64.465 C 90.270 64.646,87.612 66.923,84.932 69.500 C 83.731 70.655,82.599 71.600,82.417 71.600 C 82.010 71.600,71.600 82.041,71.600 82.449 C 71.600 82.609,70.745 83.617,69.700 84.687 C 67.378 87.066,64.656 90.280,64.442 90.896 C 64.355 91.145,63.770 91.782,63.142 92.310 C 62.514 92.839,62.000 93.516,62.000 93.816 C 62.000 94.115,61.774 94.504,61.499 94.680 C 61.223 94.856,60.459 95.810,59.800 96.800 C 59.141 97.790,58.377 98.744,58.101 98.920 C 57.826 99.096,57.600 99.418,57.600 99.637 C 57.600 100.030,57.214 100.577,55.939 101.989 C 55.576 102.392,55.158 103.101,55.011 103.566 C 54.862 104.035,54.549 104.292,54.309 104.144 C 54.038 103.976,53.993 104.065,54.189 104.383 C 54.362 104.662,54.344 105.004,54.151 105.145 C 53.616 105.534,52.000 107.921,52.000 108.323 C 52.000 108.518,51.640 109.093,51.200 109.600 C 50.760 110.107,50.400 110.765,50.400 111.061 C 50.400 111.358,50.232 111.600,50.026 111.600 C 49.820 111.600,49.424 112.230,49.146 113.000 C 48.867 113.770,48.513 114.400,48.359 114.400 C 48.204 114.400,47.877 114.895,47.631 115.500 C 46.714 117.754,44.529 121.595,44.296 121.362 C 44.163 121.230,44.153 121.499,44.274 121.960 C 44.395 122.422,44.307 122.800,44.078 122.800 C 43.850 122.800,43.545 123.340,43.400 124.000 C 43.255 124.660,42.973 125.200,42.774 125.200 C 42.575 125.200,42.208 126.010,41.958 127.000 C 41.709 127.990,41.375 128.800,41.216 128.800 C 41.057 128.800,40.426 130.105,39.813 131.700 C 38.634 134.769,37.795 136.759,36.985 138.400 C 36.714 138.950,36.361 140.030,36.200 140.800 C 36.039 141.570,35.768 142.380,35.598 142.600 C 35.428 142.820,35.060 144.035,34.781 145.300 C 34.501 146.565,34.138 147.600,33.974 147.600 C 33.810 147.600,33.551 148.500,33.400 149.600 C 33.249 150.700,32.986 151.600,32.816 151.600 C 32.646 151.600,32.267 152.950,31.974 154.600 C 31.681 156.250,31.313 157.600,31.158 157.600 C 31.002 157.600,30.748 158.545,30.593 159.700 C 30.437 160.855,30.172 161.980,30.002 162.200 C 29.832 162.420,29.594 163.410,29.474 164.400 C 29.016 168.160,28.727 169.826,28.399 170.600 C 28.213 171.040,27.880 173.020,27.660 175.000 C 27.440 176.980,27.156 179.050,27.028 179.600 C 25.741 185.151,25.864 216.841,27.190 221.400 C 27.382 222.060,27.661 224.040,27.811 225.800 C 27.960 227.560,28.198 229.180,28.340 229.400 C 28.574 229.763,29.580 235.359,29.671 236.800 C 29.692 237.130,29.842 237.580,30.004 237.800 C 30.166 238.020,30.429 239.100,30.587 240.200 C 30.745 241.300,31.012 242.380,31.180 242.600 C 31.348 242.820,31.708 244.170,31.980 245.600 C 32.252 247.030,32.618 248.380,32.792 248.600 C 32.967 248.820,33.236 249.765,33.390 250.700 C 33.544 251.635,33.806 252.400,33.972 252.400 C 34.137 252.400,34.502 253.426,34.783 254.680 C 35.064 255.934,35.431 257.239,35.600 257.580 C 36.139 258.671,37.554 262.563,37.825 263.700 C 37.969 264.305,38.247 264.800,38.443 264.800 C 38.640 264.800,38.800 265.131,38.800 265.537 C 38.800 265.942,39.497 267.697,40.348 269.437 C 41.199 271.176,42.013 273.095,42.155 273.700 C 42.298 274.305,42.592 274.800,42.808 274.800 C 43.023 274.800,43.200 275.147,43.200 275.571 C 43.200 275.996,43.454 276.597,43.765 276.908 C 44.076 277.218,44.552 278.215,44.824 279.123 C 45.096 280.031,45.457 280.688,45.627 280.583 C 45.796 280.479,46.054 280.935,46.199 281.597 C 46.345 282.258,46.615 282.800,46.801 282.800 C 46.986 282.800,47.346 283.430,47.600 284.200 C 47.854 284.970,48.192 285.600,48.351 285.600 C 48.509 285.600,48.867 286.230,49.146 287.000 C 49.424 287.770,49.820 288.400,50.026 288.400 C 50.232 288.400,50.400 288.642,50.400 288.939 C 50.400 289.235,50.760 289.893,51.200 290.400 C 51.640 290.907,52.000 291.482,52.000 291.677 C 52.000 292.038,53.411 294.157,54.274 295.092 C 54.534 295.374,54.867 295.981,55.013 296.442 C 55.159 296.902,55.576 297.608,55.939 298.011 C 57.060 299.253,57.430 299.773,57.708 300.500 C 57.855 300.885,58.148 301.200,58.360 301.200 C 58.573 301.200,58.854 301.539,58.985 301.952 C 59.116 302.366,59.533 303.070,59.912 303.515 C 60.290 303.961,60.870 304.727,61.200 305.218 C 62.174 306.667,64.059 308.955,66.217 311.307 C 66.978 312.136,67.600 312.982,67.600 313.187 C 67.600 313.392,67.825 313.704,68.100 313.880 C 69.029 314.475,74.777 321.089,74.588 321.345 C 74.485 321.485,74.511 321.519,74.646 321.421 C 74.781 321.323,76.091 322.448,77.558 323.921 C 79.025 325.394,80.999 327.230,81.945 328.000 C 82.890 328.770,84.426 330.120,85.356 331.000 C 87.057 332.608,87.945 333.341,92.000 336.477 C 93.210 337.414,94.344 338.409,94.520 338.690 C 94.696 338.970,95.106 339.200,95.432 339.200 C 95.758 339.200,96.122 339.454,96.241 339.763 C 96.360 340.073,96.972 340.540,97.600 340.800 C 98.228 341.060,98.840 341.527,98.959 341.837 C 99.078 342.146,99.451 342.400,99.787 342.400 C 100.124 342.400,100.400 342.584,100.400 342.810 C 100.400 343.035,100.850 343.391,101.400 343.600 C 101.950 343.809,102.400 344.145,102.400 344.347 C 102.400 344.548,102.837 344.823,103.372 344.957 C 103.907 345.091,104.587 345.426,104.883 345.701 C 105.896 346.640,107.967 348.000,108.384 348.000 C 108.613 348.000,108.800 348.191,108.800 348.424 C 108.800 348.657,108.960 348.749,109.155 348.628 C 109.350 348.507,109.732 348.677,110.004 349.004 C 110.276 349.332,110.746 349.600,111.049 349.600 C 111.352 349.600,111.600 349.736,111.600 349.902 C 111.600 350.069,112.185 350.463,112.900 350.778 C 113.615 351.093,114.438 351.587,114.729 351.875 C 115.019 352.164,115.514 352.400,115.829 352.400 C 116.143 352.400,116.400 352.566,116.400 352.768 C 116.400 352.971,116.938 353.255,117.595 353.399 C 118.253 353.543,118.890 353.823,119.012 354.020 C 119.214 354.347,121.787 355.632,129.335 359.174 C 130.840 359.881,132.332 360.358,132.651 360.236 C 132.969 360.114,133.321 360.250,133.432 360.540 C 133.543 360.830,133.897 361.097,134.217 361.133 C 134.538 361.170,135.062 361.230,135.382 361.267 C 135.703 361.303,135.875 361.478,135.766 361.655 C 135.657 361.832,136.070 362.100,136.684 362.252 C 137.298 362.403,138.160 362.750,138.600 363.024 C 139.040 363.298,140.030 363.650,140.800 363.807 C 141.570 363.964,142.388 364.243,142.619 364.428 C 142.849 364.612,143.725 364.839,144.564 364.931 C 145.404 365.024,146.222 365.312,146.382 365.570 C 146.542 365.829,147.152 366.092,147.737 366.154 C 148.322 366.217,148.921 366.388,149.067 366.534 C 149.214 366.680,149.843 366.800,150.467 366.800 C 151.090 366.800,151.600 367.010,151.600 367.267 C 151.600 367.523,151.714 367.620,151.853 367.481 C 151.992 367.342,152.440 367.407,152.849 367.626 C 153.258 367.845,154.217 368.048,154.980 368.076 C 155.743 368.105,156.285 368.263,156.183 368.428 C 156.081 368.593,157.303 368.935,158.899 369.190 C 160.494 369.444,162.070 369.757,162.400 369.886 C 162.730 370.015,163.180 370.176,163.400 370.244 C 164.095 370.458,170.862 371.630,174.400 372.149 C 176.270 372.424,178.070 372.762,178.400 372.902 C 178.730 373.042,179.630 373.144,180.400 373.129 C 181.170 373.114,182.520 373.212,183.400 373.347 C 187.162 373.923,202.000 374.138,202.000 373.616 C 202.000 373.309,201.692 373.187,201.226 373.309 C 200.193 373.579,200.000 372.943,200.000 369.263 L 200.000 366.192 154.800 320.998 C 113.752 279.956,107.658 273.730,110.500 275.738 C 133.145 291.740,161.812 279.188,173.393 248.200 C 174.743 244.587,174.406 244.734,178.800 245.839 C 191.605 249.057,207.526 249.121,220.000 246.006 C 225.824 244.552,225.300 244.495,226.159 246.675 C 242.595 288.387,280.481 295.312,303.203 260.758 C 305.377 257.452,309.607 249.627,309.594 248.934 C 309.591 248.750,308.627 250.400,307.454 252.600 C 293.715 278.350,271.406 287.172,250.705 275.040 C 249.730 274.469,248.783 274.136,248.602 274.301 C 248.420 274.465,248.401 274.375,248.559 274.100 C 248.718 273.825,248.698 273.600,248.516 273.600 C 248.334 273.600,247.112 272.715,245.800 271.633 C 244.489 270.552,243.249 269.770,243.046 269.895 C 242.843 270.021,242.787 269.944,242.923 269.725 C 243.236 269.218,240.652 266.681,240.240 267.093 C 240.071 267.262,239.993 267.193,240.067 266.940 C 240.140 266.686,239.202 265.246,237.983 263.740 C 234.868 259.892,231.820 254.975,229.411 249.914 C 228.278 247.532,227.217 245.717,227.054 245.879 C 226.891 246.042,226.858 245.911,226.981 245.588 C 227.345 244.628,225.781 241.016,224.941 240.878 C 224.310 240.775,224.289 240.823,224.800 241.205 C 225.286 241.567,225.230 241.605,224.507 241.401 C 224.015 241.263,222.485 241.444,221.107 241.804 C 206.891 245.510,185.111 244.957,175.159 240.638 C 174.646 240.415,174.256 241.025,173.214 243.680 C 170.285 251.142,166.149 258.503,161.824 263.950 C 160.711 265.352,159.849 266.671,159.910 266.880 C 159.970 267.088,159.864 267.163,159.673 267.045 C 159.189 266.746,156.717 269.376,157.093 269.790 C 157.262 269.976,157.202 270.016,156.961 269.878 C 156.719 269.740,156.179 269.942,155.761 270.327 C 155.342 270.712,154.151 271.671,153.113 272.459 C 152.075 273.248,151.310 274.007,151.413 274.146 C 151.516 274.286,151.494 274.324,151.364 274.231 C 151.234 274.138,149.299 275.022,147.064 276.196 C 136.246 281.877,125.120 281.808,114.140 275.992 C 112.127 274.926,110.357 274.176,110.207 274.327 C 110.056 274.477,109.993 274.405,110.067 274.167 C 110.140 273.929,108.850 272.642,107.200 271.308 C 105.550 269.974,103.769 268.419,103.242 267.853 C 102.715 267.288,102.102 266.937,101.880 267.074 C 101.650 267.216,101.600 267.124,101.763 266.859 C 101.930 266.589,101.220 265.432,100.068 264.097 C 75.490 235.609,76.439 179.179,101.992 149.800 C 119.022 130.219,147.152 124.736,170.493 136.447 L 174.385 138.400 200.516 138.400 C 223.556 138.400,226.739 138.326,227.424 137.778 C 228.174 137.177,228.170 137.170,227.326 137.578 C 226.767 137.848,221.686 138.000,213.226 138.000 L 200.000 138.000 200.000 82.774 C 200.000 45.470,200.134 27.296,200.414 26.774 C 200.882 25.899,195.146 25.765,185.800 26.431 M201.467 26.267 C 201.018 26.715,201.169 27.200,201.757 27.200 C 202.064 27.200,202.418 26.930,202.545 26.600 C 202.775 25.999,201.981 25.753,201.467 26.267 M211.200 26.800 C 211.200 27.020,211.841 27.200,212.624 27.200 C 213.471 27.200,213.947 27.038,213.800 26.800 C 213.664 26.580,213.023 26.400,212.376 26.400 C 211.729 26.400,211.200 26.580,211.200 26.800 M218.155 27.272 C 218.063 27.422,218.139 27.638,218.324 27.753 C 218.735 28.007,220.400 27.606,220.400 27.253 C 220.400 26.911,218.368 26.929,218.155 27.272 M222.800 27.786 C 222.800 28.379,224.338 28.737,224.547 28.193 C 224.711 27.768,224.495 27.600,223.787 27.600 C 223.244 27.600,222.800 27.684,222.800 27.786 M245.200 32.425 C 245.200 32.880,246.275 32.927,246.549 32.483 C 246.656 32.309,246.397 32.140,245.972 32.108 C 245.548 32.076,245.200 32.219,245.200 32.425 M266.400 39.600 C 266.400 39.820,266.805 39.997,267.300 39.994 C 268.028 39.989,268.085 39.914,267.600 39.600 C 266.824 39.099,266.400 39.099,266.400 39.600 M253.513 130.295 C 254.676 130.376,256.476 130.376,257.513 130.293 C 258.551 130.211,257.600 130.145,255.400 130.146 C 253.200 130.147,252.351 130.214,253.513 130.295 M246.200 130.811 C 245.472 131.002,246.102 131.041,247.800 130.909 C 249.340 130.789,250.675 130.625,250.767 130.545 C 251.073 130.278,247.416 130.491,246.200 130.811 M259.633 130.545 C 259.725 130.625,261.060 130.792,262.600 130.916 C 264.304 131.053,265.009 131.012,264.400 130.811 C 263.422 130.487,259.304 130.258,259.633 130.545 M240.100 132.048 C 239.385 132.254,238.800 132.503,238.800 132.601 C 238.800 132.823,241.120 132.389,242.200 131.965 L 243.000 131.651 242.200 131.661 C 241.760 131.667,240.815 131.841,240.100 132.048 M268.600 131.939 C 269.837 132.468,271.910 132.877,271.200 132.451 C 270.870 132.254,269.970 131.980,269.200 131.844 C 268.256 131.677,268.060 131.708,268.600 131.939 M273.400 133.355 C 274.060 133.655,275.050 134.011,275.600 134.146 C 276.403 134.343,276.364 134.284,275.400 133.845 C 274.740 133.545,273.750 133.189,273.200 133.054 C 272.397 132.857,272.436 132.916,273.400 133.355 M232.500 134.812 C 231.161 135.351,231.411 135.624,232.800 135.140 C 233.460 134.910,234.000 134.649,234.000 134.561 C 234.000 134.324,233.513 134.405,232.500 134.812 M277.600 135.000 C 278.150 135.314,278.780 135.572,279.000 135.572 C 279.220 135.572,278.950 135.314,278.400 135.000 C 277.850 134.686,277.220 134.428,277.000 134.428 C 276.780 134.428,277.050 134.686,277.600 135.000 M229.500 136.229 C 227.949 137.070,228.125 137.361,229.700 136.559 C 231.208 135.793,231.475 135.594,230.967 135.616 C 230.765 135.625,230.105 135.901,229.500 136.229 M280.400 136.170 C 280.400 136.289,281.255 136.833,282.300 137.378 C 283.345 137.923,284.830 138.756,285.600 139.228 C 286.945 140.053,286.961 140.054,286.000 139.255 C 284.848 138.297,280.400 135.846,280.400 136.170 M287.200 140.088 C 287.200 140.325,291.927 144.000,292.231 144.000 C 292.488 144.000,290.977 142.728,288.700 141.026 C 287.875 140.410,287.200 139.988,287.200 140.088 M295.400 147.200 C 296.928 148.740,298.269 150.000,298.379 150.000 C 298.489 150.000,297.328 148.740,295.800 147.200 C 294.272 145.660,292.931 144.400,292.821 144.400 C 292.711 144.400,293.872 145.660,295.400 147.200 M299.635 152.000 C 301.236 154.204,301.836 154.862,301.277 153.800 C 301.045 153.360,300.287 152.370,299.592 151.600 L 298.328 150.200 299.635 152.000 M126.923 159.899 C 129.520 159.969,133.660 159.968,136.123 159.898 C 138.585 159.828,136.460 159.771,131.400 159.772 C 126.340 159.772,124.325 159.829,126.923 159.899 M121.773 169.400 C 121.773 174.680,121.830 176.785,121.899 174.077 C 121.968 171.369,121.968 167.049,121.899 164.477 C 121.829 161.905,121.772 164.120,121.773 169.400 M140.892 169.293 L 140.800 178.785 131.500 178.900 L 122.200 179.015 131.513 179.108 C 138.746 179.179,140.869 179.086,141.020 178.691 C 141.128 178.412,141.163 174.047,141.100 168.991 L 140.984 159.800 140.892 169.293 M371.200 171.733 C 371.200 172.540,371.351 173.200,371.536 173.200 C 371.922 173.200,371.861 170.928,371.464 170.531 C 371.319 170.386,371.200 170.927,371.200 171.733 M371.884 175.600 C 371.769 176.039,371.838 176.500,372.038 176.623 C 372.237 176.746,372.400 176.387,372.400 175.824 C 372.400 174.598,372.172 174.499,371.884 175.600 M287.900 178.282 C 288.395 178.378,289.205 178.378,289.700 178.282 C 290.195 178.187,289.790 178.109,288.800 178.109 C 287.810 178.109,287.405 178.187,287.900 178.282 M241.578 179.932 C 240.600 180.554,239.535 181.409,239.212 181.832 C 238.746 182.440,238.829 182.419,239.612 181.730 C 240.155 181.251,241.410 180.398,242.400 179.835 C 243.390 179.271,244.010 178.807,243.778 178.805 C 243.546 178.802,242.556 179.309,241.578 179.932 M253.200 179.678 C 255.758 182.057,257.272 183.233,256.000 181.853 C 255.230 181.018,254.240 180.145,253.800 179.913 C 253.360 179.681,253.090 179.575,253.200 179.678 M372.321 180.259 C 372.198 180.728,372.246 181.351,372.427 181.644 C 372.950 182.491,373.203 181.870,372.859 180.583 C 372.575 179.523,372.522 179.491,372.321 180.259 M111.000 180.296 L 120.400 180.414 120.400 189.607 L 120.400 198.800 110.900 198.812 C 104.442 198.820,101.617 198.951,102.078 199.220 C 102.486 199.458,106.314 199.572,111.678 199.508 L 120.600 199.400 120.600 189.800 L 120.600 180.200 111.100 180.189 L 101.600 180.178 111.000 180.296 M142.173 189.600 C 142.173 194.990,142.230 197.195,142.299 194.500 C 142.368 191.805,142.368 187.395,142.299 184.700 C 142.230 182.005,142.173 184.210,142.173 189.600 M277.849 186.215 C 277.712 186.573,277.615 187.166,277.634 187.533 C 277.653 187.900,277.827 187.669,278.021 187.020 C 278.398 185.758,278.265 185.133,277.849 186.215 M373.093 185.900 C 372.785 186.502,372.796 188.800,373.108 188.800 C 373.284 188.800,373.434 188.080,373.440 187.200 C 373.452 185.599,373.382 185.337,373.093 185.900 M236.181 188.185 C 236.034 189.167,236.070 190.634,236.262 191.444 C 236.552 192.670,236.611 192.371,236.611 189.659 C 236.611 185.916,236.552 185.715,236.181 188.185 M258.928 189.600 C 258.928 191.030,259.001 191.615,259.089 190.900 C 259.178 190.185,259.178 189.015,259.089 188.300 C 259.001 187.585,258.928 188.170,258.928 189.600 M277.668 191.800 C 277.662 192.240,277.811 192.960,278.000 193.400 C 278.438 194.419,278.438 193.368,278.000 192.000 C 277.743 191.196,277.677 191.157,277.668 191.800 M316.493 192.400 C 316.493 193.170,316.575 193.485,316.676 193.100 C 316.776 192.715,316.776 192.085,316.676 191.700 C 316.575 191.315,316.493 191.630,316.493 192.400 M373.540 196.100 C 373.336 199.172,373.357 203.200,373.578 203.200 C 373.721 203.200,373.874 201.400,373.918 199.200 C 373.986 195.745,373.713 193.501,373.540 196.100 M255.578 197.435 C 252.418 200.725,246.870 201.715,242.800 199.716 C 241.224 198.941,241.116 198.927,241.932 199.606 C 245.525 202.591,253.950 201.042,256.707 196.889 C 257.565 195.597,257.152 195.797,255.578 197.435 M238.400 196.525 C 238.400 196.594,238.985 197.179,239.700 197.825 L 241.000 199.000 239.825 197.700 C 238.730 196.488,238.400 196.216,238.400 196.525 M279.600 196.525 C 279.600 196.594,280.185 197.179,280.900 197.825 L 282.200 199.000 281.025 197.700 C 279.930 196.488,279.600 196.216,279.600 196.525 M317.293 199.200 C 317.293 199.970,317.375 200.285,317.476 199.900 C 317.576 199.515,317.576 198.885,317.476 198.500 C 317.375 198.115,317.293 198.430,317.293 199.200 M143.000 199.200 C 143.153 199.447,146.596 199.600,152.000 199.600 C 157.404 199.600,160.847 199.447,161.000 199.200 C 161.162 198.938,158.063 198.800,152.000 198.800 C 145.937 198.800,142.838 198.938,143.000 199.200 M121.780 200.509 C 121.672 200.788,121.633 205.153,121.692 210.209 L 121.800 219.400 131.500 219.507 L 141.200 219.614 141.200 210.050 C 141.200 201.697,141.120 200.455,140.567 200.243 C 139.229 199.729,121.985 199.973,121.780 200.509 M140.707 209.900 L 140.815 219.200 131.407 219.200 L 122.000 219.200 122.000 209.793 L 122.000 200.385 131.300 200.493 L 140.600 200.600 140.707 209.900 M287.907 201.090 C 288.626 201.179,289.706 201.177,290.307 201.086 C 290.908 200.995,290.320 200.922,289.000 200.924 C 287.680 200.926,287.188 201.001,287.907 201.090 M317.758 208.200 C 317.758 211.280,317.821 212.487,317.897 210.882 C 317.973 209.278,317.973 206.758,317.896 205.282 C 317.819 203.807,317.757 205.120,317.758 208.200 M179.629 205.454 C 178.454 206.947,178.535 209.122,179.816 210.504 C 181.201 211.997,181.519 211.895,180.236 210.369 C 178.962 208.856,178.881 206.914,180.029 205.454 C 180.485 204.874,180.768 204.400,180.658 204.400 C 180.548 204.400,180.085 204.874,179.629 205.454 M185.449 205.200 C 185.916 205.750,186.397 206.470,186.518 206.800 C 186.705 207.314,186.741 207.309,186.768 206.770 C 186.786 206.423,186.305 205.703,185.700 205.170 L 184.600 204.200 185.449 205.200 M196.829 205.454 C 196.303 206.123,196.018 207.036,196.050 207.954 L 196.100 209.400 196.375 207.714 C 196.526 206.787,196.982 205.662,197.387 205.214 C 197.792 204.766,198.019 204.400,197.891 204.400 C 197.763 204.400,197.285 204.874,196.829 205.454 M202.644 205.180 C 202.888 205.521,203.288 206.160,203.532 206.600 C 203.776 207.040,203.981 207.185,203.988 206.922 C 203.995 206.660,203.595 206.021,203.100 205.503 C 202.605 204.985,202.400 204.840,202.644 205.180 M214.029 205.454 C 213.210 206.495,212.863 209.345,213.507 209.743 C 213.676 209.847,213.746 209.210,213.662 208.327 C 213.548 207.141,213.733 206.417,214.366 205.560 C 215.438 204.111,215.155 204.022,214.029 205.454 M219.879 205.189 C 220.142 205.534,220.536 206.263,220.754 206.808 C 221.017 207.468,221.158 207.573,221.175 207.122 C 221.189 206.750,220.795 206.021,220.300 205.503 C 219.805 204.985,219.616 204.843,219.879 205.189 M203.116 209.913 L 202.432 211.400 203.216 210.456 C 203.647 209.936,204.000 209.261,204.000 208.956 C 204.000 208.133,203.870 208.273,203.116 209.913 M220.286 209.910 L 219.573 211.400 220.377 210.400 C 220.820 209.850,221.186 209.175,221.191 208.900 C 221.205 208.133,221.060 208.295,220.286 209.910 M185.894 210.103 L 185.188 211.400 185.994 210.456 C 186.680 209.652,187.046 208.794,186.700 208.803 C 186.645 208.804,186.282 209.389,185.894 210.103 M183.000 211.600 L 181.400 211.886 182.876 211.943 C 183.688 211.974,184.464 211.820,184.600 211.600 C 184.736 211.380,184.792 211.226,184.724 211.257 C 184.656 211.288,183.880 211.442,183.000 211.600 M372.800 212.067 C 372.800 212.543,372.925 212.808,373.078 212.655 C 373.511 212.223,373.571 211.200,373.165 211.200 C 372.964 211.200,372.800 211.590,372.800 212.067 M199.300 211.876 C 199.685 211.976,200.315 211.976,200.700 211.876 C 201.085 211.775,200.770 211.693,200.000 211.693 C 199.230 211.693,198.915 211.775,199.300 211.876 M216.500 211.876 C 216.885 211.976,217.515 211.976,217.900 211.876 C 218.285 211.775,217.970 211.693,217.200 211.693 C 216.430 211.693,216.115 211.775,216.500 211.876 M317.301 217.000 C 317.305 217.880,317.387 218.193,317.483 217.695 C 317.579 217.198,317.575 216.478,317.475 216.095 C 317.375 215.713,317.296 216.120,317.301 217.000 M372.259 218.589 C 372.136 218.911,372.188 219.269,372.376 219.385 C 372.563 219.501,372.817 219.332,372.941 219.011 C 373.064 218.689,373.012 218.331,372.824 218.215 C 372.637 218.099,372.383 218.268,372.259 218.589 M315.000 231.600 C 314.848 232.291,314.807 232.941,314.909 233.042 C 315.011 233.144,315.209 232.653,315.350 231.950 C 315.491 231.247,315.531 230.598,315.441 230.508 C 315.350 230.417,315.152 230.909,315.000 231.600 M312.044 241.644 C 311.798 242.351,311.666 243.000,311.752 243.085 C 311.838 243.171,312.109 242.662,312.356 241.956 C 312.602 241.249,312.734 240.600,312.648 240.515 C 312.562 240.429,312.291 240.938,312.044 241.644 " stroke="none" fill="#b8c8e7" fill-rule="evenodd"></path><path id="path1" d="M192.184 25.226 C 192.005 25.515,192.412 25.562,193.461 25.372 C 195.503 25.003,195.655 24.800,193.890 24.800 C 193.097 24.800,192.329 24.991,192.184 25.226 M185.404 26.006 C 185.538 26.223,186.207 26.400,186.890 26.400 C 188.401 26.400,188.249 26.200,186.480 25.863 C 185.655 25.706,185.252 25.760,185.404 26.006 M178.694 26.500 C 178.575 26.809,178.846 27.000,179.400 27.000 C 179.954 27.000,180.225 26.809,180.106 26.500 C 180.001 26.225,179.683 26.000,179.400 26.000 C 179.117 26.000,178.799 26.225,178.694 26.500 M171.030 27.733 C 171.142 28.027,171.497 28.267,171.817 28.267 C 172.593 28.267,172.561 27.747,171.767 27.443 C 170.876 27.101,170.799 27.131,171.030 27.733 M155.600 30.800 C 155.600 31.301,156.024 31.301,156.800 30.800 C 157.285 30.486,157.228 30.411,156.500 30.406 C 156.005 30.403,155.600 30.580,155.600 30.800 M136.229 37.429 C 135.883 37.774,135.600 38.264,135.600 38.518 C 135.600 38.771,135.889 38.566,136.242 38.062 C 136.596 37.557,137.133 37.242,137.442 37.361 C 137.749 37.478,138.000 37.401,138.000 37.187 C 138.000 36.585,136.926 36.731,136.229 37.429 M81.300 71.778 C 80.585 72.450,80.000 73.156,80.000 73.346 C 80.000 73.536,80.665 73.046,81.477 72.256 C 82.290 71.467,82.875 70.761,82.777 70.688 C 82.680 70.615,82.015 71.105,81.300 71.778 M71.326 81.829 C 70.850 82.363,70.674 82.800,70.934 82.800 C 71.397 82.800,72.585 81.252,72.323 80.990 C 72.250 80.917,71.801 81.295,71.326 81.829 M67.600 85.800 C 67.317 86.141,67.176 86.509,67.286 86.619 C 67.396 86.729,67.717 86.541,68.000 86.200 C 68.283 85.859,68.424 85.491,68.314 85.381 C 68.204 85.271,67.883 85.459,67.600 85.800 M62.429 92.229 C 61.726 93.029,61.265 93.799,61.405 93.939 C 61.545 94.079,61.847 93.860,62.075 93.452 C 62.303 93.044,62.845 92.355,63.278 91.922 C 63.712 91.488,63.986 91.052,63.887 90.953 C 63.788 90.854,63.131 91.428,62.429 92.229 M57.600 98.600 C 57.317 98.941,57.176 99.309,57.286 99.419 C 57.396 99.529,57.717 99.341,58.000 99.000 C 58.283 98.659,58.424 98.291,58.314 98.181 C 58.204 98.071,57.883 98.259,57.600 98.600 M44.846 119.067 C 44.821 119.324,44.684 119.864,44.541 120.267 C 44.340 120.836,44.394 120.897,44.779 120.542 C 45.052 120.291,45.189 119.751,45.084 119.342 C 44.979 118.934,44.872 118.810,44.846 119.067 M43.702 122.100 C 42.957 123.042,42.372 124.400,42.712 124.400 C 42.899 124.400,43.352 123.770,43.719 123.000 C 44.406 121.561,44.399 121.220,43.702 122.100 M140.400 130.448 C 104.577 133.154,79.058 170.275,82.354 214.887 C 87.562 285.371,149.184 304.898,173.214 243.680 C 174.256 241.025,174.646 240.415,175.159 240.638 C 185.387 245.077,206.508 245.513,221.945 241.604 C 225.881 240.608,225.335 240.267,227.192 244.881 C 236.955 269.140,254.854 282.687,273.637 280.036 C 319.101 273.618,333.673 186.785,295.852 147.663 C 278.448 129.661,250.453 125.213,228.886 137.023 L 226.372 138.400 200.379 138.400 L 174.385 138.400 170.493 136.447 C 161.152 131.760,150.676 129.672,140.400 130.448 M35.878 139.223 C 35.702 139.898,35.765 139.961,36.231 139.574 C 36.868 139.046,36.986 138.400,36.447 138.400 C 36.252 138.400,35.996 138.770,35.878 139.223 M140.708 159.934 C 141.099 160.183,141.191 162.398,141.108 169.628 L 141.000 179.000 132.200 179.113 C 127.360 179.175,122.995 179.127,122.500 179.005 L 121.600 178.785 121.600 169.426 C 121.600 162.313,121.720 160.018,122.100 159.865 C 122.940 159.526,140.165 159.590,140.708 159.934 M273.034 161.152 C 277.241 163.142,279.600 166.815,279.600 171.376 C 279.600 180.753,269.183 186.155,261.713 180.650 C 250.560 172.430,260.540 155.241,273.034 161.152 M252.512 179.302 C 256.599 181.027,259.455 185.810,259.124 190.378 C 258.451 199.680,247.812 204.461,240.695 198.660 C 230.074 190.002,239.865 173.962,252.512 179.302 M291.523 178.466 C 299.677 180.492,303.095 190.005,298.048 196.622 C 291.446 205.279,277.413 200.536,277.514 189.682 C 277.584 182.026,284.278 176.666,291.523 178.466 M120.600 189.800 L 120.600 199.400 112.000 199.513 C 107.270 199.575,102.995 199.527,102.500 199.405 L 101.600 199.185 101.600 189.585 L 101.600 179.986 111.100 180.093 L 120.600 180.200 120.600 189.800 M161.107 189.700 L 161.000 199.400 152.800 199.517 C 148.290 199.581,144.015 199.528,143.300 199.399 L 142.000 199.164 142.000 189.582 L 142.000 180.000 151.607 180.000 L 161.214 180.000 161.107 189.700 M24.800 200.000 C 24.800 202.860,24.935 205.200,25.100 205.200 C 25.265 205.200,25.400 202.860,25.400 200.000 C 25.400 197.140,25.265 194.800,25.100 194.800 C 24.935 194.800,24.800 197.140,24.800 200.000 M272.889 197.510 C 283.121 202.036,281.134 217.104,270.040 219.120 C 260.856 220.789,253.626 210.549,258.242 202.410 C 261.226 197.149,267.403 195.083,272.889 197.510 M140.567 200.243 C 141.120 200.455,141.200 201.697,141.200 210.050 L 141.200 219.614 131.500 219.507 L 121.800 219.400 121.692 210.209 C 121.633 205.153,121.672 200.788,121.780 200.509 C 121.985 199.973,139.229 199.729,140.567 200.243 M184.002 204.000 C 186.638 204.000,187.732 208.808,185.558 210.840 C 182.114 214.056,176.754 209.499,179.451 205.648 C 180.186 204.600,182.326 203.534,183.133 203.815 C 183.426 203.917,183.817 204.000,184.002 204.000 M202.831 205.169 C 206.023 208.362,202.410 213.445,198.285 211.566 C 194.488 209.836,195.811 204.000,200.000 204.000 C 201.303 204.000,201.914 204.252,202.831 205.169 M220.031 205.169 C 222.876 208.015,220.124 212.821,216.212 211.839 C 211.716 210.710,212.561 204.000,217.200 204.000 C 218.503 204.000,219.114 204.252,220.031 205.169 M27.309 228.409 C 27.276 228.853,27.418 229.113,27.624 228.985 C 28.079 228.704,28.127 227.600,27.685 227.600 C 27.512 227.600,27.343 227.964,27.309 228.409 M35.892 260.830 C 36.003 261.253,36.337 261.600,36.634 261.600 C 37.287 261.600,36.957 260.546,36.214 260.261 C 35.859 260.125,35.755 260.308,35.892 260.830 M42.964 276.731 C 43.311 277.401,43.763 278.054,43.970 278.181 C 44.176 278.309,44.076 277.874,43.747 277.215 C 43.418 276.555,42.966 275.903,42.742 275.764 C 42.517 275.625,42.618 276.060,42.964 276.731 M44.400 279.756 C 44.400 280.287,45.959 282.455,45.987 281.961 C 46.006 281.610,44.770 279.200,44.571 279.200 C 44.477 279.200,44.400 279.450,44.400 279.756 M61.625 306.400 C 61.625 307.097,63.538 309.395,63.854 309.079 C 63.971 308.962,63.712 308.512,63.278 308.078 C 62.845 307.645,62.295 306.955,62.057 306.545 C 61.737 305.994,61.624 305.956,61.625 306.400 M80.324 327.033 C 80.840 328.028,82.000 329.056,82.000 328.519 C 82.000 328.310,81.526 327.703,80.946 327.170 C 80.005 326.304,79.938 326.290,80.324 327.033 M124.400 357.512 C 124.400 357.993,126.740 358.884,127.221 358.587 C 127.403 358.475,127.736 358.702,127.963 359.092 C 128.190 359.481,128.381 359.597,128.388 359.349 C 128.404 358.762,127.401 357.932,127.073 358.260 C 126.933 358.400,126.545 358.286,126.210 358.008 C 125.874 357.730,125.600 357.636,125.600 357.800 C 125.600 357.964,125.330 357.874,125.000 357.600 C 124.648 357.308,124.400 357.271,124.400 357.512 M155.600 368.800 C 155.600 369.367,155.863 369.596,156.500 369.588 C 157.311 369.577,157.330 369.535,156.692 369.163 C 156.302 368.936,156.088 368.582,156.215 368.375 C 156.343 368.169,156.257 368.000,156.024 368.000 C 155.791 368.000,155.600 368.360,155.600 368.800 M192.200 374.800 C 192.336 375.020,193.112 375.182,193.924 375.160 C 195.250 375.124,195.298 375.088,194.400 374.800 C 192.955 374.337,191.914 374.337,192.200 374.800 " stroke="none" fill="#f7f7f7" fill-rule="evenodd"></path><path id="path2" d="M195.200 25.072 C 195.201 25.252,198.180 25.442,201.820 25.494 C 205.461 25.546,208.358 25.456,208.258 25.294 C 208.005 24.885,195.200 24.667,195.200 25.072 M211.340 25.874 C 211.756 26.289,215.318 26.363,216.000 25.970 C 216.381 25.751,215.590 25.620,213.833 25.612 C 212.312 25.605,211.190 25.723,211.340 25.874 M218.800 26.400 C 218.800 26.620,219.070 26.800,219.400 26.800 C 219.730 26.800,220.000 26.620,220.000 26.400 C 220.000 26.180,219.730 26.000,219.400 26.000 C 219.070 26.000,218.800 26.180,218.800 26.400 M220.477 26.430 C 220.555 26.667,220.791 26.860,221.000 26.860 C 221.209 26.860,221.445 26.667,221.523 26.430 C 221.602 26.194,221.367 26.000,221.000 26.000 C 220.633 26.000,220.398 26.194,220.477 26.430 M222.800 26.776 C 222.800 27.009,223.460 27.200,224.267 27.200 C 225.967 27.200,225.838 26.831,224.038 26.547 C 223.310 26.432,222.800 26.527,222.800 26.776 M226.400 27.600 C 225.915 27.914,225.972 27.989,226.700 27.994 C 227.195 27.997,227.600 27.820,227.600 27.600 C 227.600 27.099,227.176 27.099,226.400 27.600 M165.784 28.426 C 165.406 29.038,165.790 29.286,166.866 29.124 L 167.800 28.982 166.924 28.490 C 166.314 28.147,165.968 28.128,165.784 28.426 M232.600 28.800 C 232.304 29.280,233.484 29.280,234.600 28.800 C 235.274 28.510,235.200 28.452,234.124 28.428 C 233.422 28.413,232.736 28.580,232.600 28.800 M163.200 29.175 C 163.200 29.381,163.548 29.524,163.972 29.492 C 164.397 29.460,164.656 29.291,164.549 29.117 C 164.275 28.673,163.200 28.720,163.200 29.175 M236.000 29.243 C 236.000 29.486,236.264 29.584,236.587 29.460 C 236.910 29.336,237.281 29.407,237.411 29.617 C 237.541 29.828,238.256 30.000,239.000 30.000 C 239.744 30.000,240.459 30.172,240.589 30.383 C 240.719 30.593,241.108 30.657,241.452 30.525 C 242.305 30.197,239.246 29.141,238.300 29.436 C 237.915 29.556,237.600 29.462,237.600 29.227 C 237.600 28.992,237.240 28.800,236.800 28.800 C 236.360 28.800,236.000 28.999,236.000 29.243 M243.095 30.677 C 242.707 30.778,242.483 31.010,242.596 31.193 C 242.853 31.609,244.400 31.232,244.400 30.753 C 244.400 30.384,244.252 30.375,243.095 30.677 M246.568 31.826 C 246.912 32.170,247.363 32.347,247.569 32.219 C 247.776 32.091,248.058 32.170,248.196 32.393 C 248.529 32.932,250.000 32.917,250.000 32.375 C 250.000 32.141,249.685 31.989,249.300 32.037 C 248.915 32.086,248.093 31.917,247.474 31.663 C 245.982 31.050,245.821 31.079,246.568 31.826 M250.616 33.227 C 250.761 33.461,250.981 33.553,251.103 33.430 C 251.226 33.307,251.572 33.411,251.872 33.660 C 252.304 34.018,252.365 33.975,252.166 33.457 C 252.028 33.095,251.563 32.800,251.134 32.800 C 250.682 32.800,250.464 32.980,250.616 33.227 M257.600 35.112 C 257.600 35.284,258.140 35.628,258.800 35.878 C 259.460 36.127,260.000 36.166,260.000 35.965 C 260.000 35.764,259.730 35.600,259.400 35.600 C 259.070 35.600,258.800 35.420,258.800 35.200 C 258.800 34.980,258.530 34.800,258.200 34.800 C 257.870 34.800,257.600 34.941,257.600 35.112 M261.674 36.423 C 261.766 36.698,262.246 37.073,262.741 37.256 C 263.835 37.661,263.535 37.008,262.331 36.363 C 261.697 36.024,261.546 36.038,261.674 36.423 M264.475 37.733 C 264.768 38.025,265.546 38.397,266.204 38.559 C 267.328 38.835,267.352 38.817,266.604 38.262 C 266.167 37.937,265.684 37.748,265.532 37.842 C 265.380 37.936,265.142 37.830,265.004 37.607 C 264.866 37.383,264.571 37.200,264.348 37.200 C 264.125 37.200,264.182 37.440,264.475 37.733 M129.376 40.187 C 128.949 40.510,128.780 40.775,129.000 40.775 C 129.220 40.775,129.749 40.510,130.176 40.187 C 130.604 39.864,130.773 39.600,130.553 39.600 C 130.333 39.600,129.804 39.864,129.376 40.187 M269.300 39.876 C 269.685 39.976,270.000 40.225,270.000 40.429 C 270.000 40.633,270.315 40.794,270.700 40.787 C 271.333 40.776,271.326 40.719,270.624 40.187 C 270.196 39.864,269.566 39.621,269.224 39.646 C 268.739 39.682,268.756 39.734,269.300 39.876 M274.543 42.200 C 274.873 42.530,275.370 42.800,275.648 42.800 C 275.931 42.800,275.812 42.542,275.376 42.213 C 274.358 41.442,273.776 41.433,274.543 42.200 M277.038 44.062 C 277.158 44.255,277.443 44.297,277.672 44.155 C 277.902 44.014,278.263 44.146,278.475 44.449 C 278.792 44.902,278.832 44.893,278.697 44.400 C 278.607 44.070,278.148 43.780,277.677 43.755 C 277.206 43.730,276.919 43.868,277.038 44.062 M279.404 44.807 C 279.542 45.030,279.807 45.119,279.993 45.004 C 280.179 44.889,280.412 45.021,280.511 45.298 C 280.610 45.574,280.845 45.655,281.034 45.478 C 281.222 45.301,281.112 44.989,280.788 44.784 C 279.999 44.285,279.091 44.300,279.404 44.807 M285.070 47.493 C 284.968 47.662,285.135 48.032,285.442 48.316 C 285.900 48.739,286.000 48.726,286.000 48.239 C 286.000 47.560,285.347 47.036,285.070 47.493 M288.962 49.942 C 289.809 50.895,290.000 50.982,290.000 50.414 C 290.000 50.202,289.595 49.816,289.100 49.556 C 288.205 49.086,288.204 49.088,288.962 49.942 M96.898 58.666 C 96.621 58.777,96.492 59.025,96.610 59.217 C 96.870 59.636,98.000 59.262,98.000 58.757 C 98.000 58.372,97.690 58.346,96.898 58.666 M307.200 62.724 C 307.200 62.939,307.485 63.224,307.833 63.357 C 308.223 63.507,308.406 63.418,308.308 63.125 C 308.109 62.527,307.200 62.198,307.200 62.724 M86.662 66.731 C 86.298 67.134,86.000 67.592,86.000 67.750 C 86.000 68.128,87.971 66.690,87.987 66.300 C 88.010 65.764,87.340 65.982,86.662 66.731 M312.438 66.776 C 312.040 67.022,312.029 67.171,312.392 67.395 C 312.655 67.557,313.050 67.510,313.270 67.290 C 313.791 66.769,313.121 66.355,312.438 66.776 M316.400 70.351 C 316.400 70.581,316.676 71.001,317.014 71.284 C 317.352 71.568,317.892 72.038,318.214 72.329 C 318.536 72.619,318.797 72.709,318.794 72.529 C 318.784 71.982,318.134 71.129,317.755 71.166 C 317.560 71.185,317.400 70.990,317.400 70.733 C 317.400 70.477,317.175 70.192,316.900 70.100 C 316.625 70.008,316.400 70.121,316.400 70.351 M321.201 74.700 C 321.202 74.865,321.743 75.360,322.403 75.800 C 323.064 76.240,323.700 76.898,323.818 77.263 C 324.011 77.867,325.200 78.649,325.200 78.173 C 325.200 77.936,321.604 74.400,321.363 74.400 C 321.273 74.400,321.201 74.535,321.201 74.700 M328.000 81.558 C 328.000 82.228,329.469 83.735,329.723 83.325 C 329.860 83.103,329.529 82.535,328.986 82.063 C 328.444 81.591,328.000 81.364,328.000 81.558 M331.199 85.398 C 331.714 85.948,332.209 86.325,332.297 86.236 C 332.532 86.001,331.088 84.400,330.641 84.400 C 330.432 84.400,330.683 84.849,331.199 85.398 M66.495 86.865 C 66.223 87.137,66.000 87.633,66.000 87.966 C 66.000 88.490,66.087 88.484,66.646 87.925 C 67.002 87.569,67.225 87.074,67.141 86.824 C 67.032 86.496,66.852 86.508,66.495 86.865 M332.400 87.237 C 332.400 87.437,332.649 87.600,332.953 87.600 C 333.258 87.600,333.601 87.960,333.716 88.400 C 333.831 88.840,334.167 89.186,334.463 89.168 C 334.867 89.145,334.876 89.087,334.500 88.935 C 334.225 88.824,334.000 88.409,334.000 88.013 C 334.000 87.617,333.640 87.199,333.200 87.084 C 332.760 86.969,332.400 87.038,332.400 87.237 M335.102 89.866 C 335.379 89.977,335.516 90.213,335.407 90.389 C 335.153 90.799,336.335 91.798,336.674 91.459 C 337.000 91.134,335.618 89.590,335.038 89.632 C 334.787 89.650,334.815 89.750,335.102 89.866 M336.963 92.490 C 337.020 92.771,337.388 93.062,337.781 93.138 C 338.225 93.225,338.391 93.109,338.220 92.832 C 338.068 92.587,337.793 92.481,337.607 92.596 C 337.421 92.711,337.176 92.619,337.064 92.392 C 336.952 92.166,336.906 92.209,336.963 92.490 M59.092 96.242 C 58.931 96.402,58.800 96.809,58.800 97.147 C 58.800 97.597,58.918 97.642,59.245 97.315 C 59.490 97.070,59.621 96.663,59.537 96.410 C 59.452 96.157,59.252 96.081,59.092 96.242 M341.484 97.900 C 341.247 98.337,342.937 100.577,343.619 100.729 C 343.939 100.801,343.612 100.249,342.893 99.503 C 342.174 98.757,341.709 98.024,341.860 97.874 C 342.010 97.723,342.024 97.600,341.890 97.600 C 341.757 97.600,341.574 97.735,341.484 97.900 M345.008 103.187 C 344.868 103.414,344.943 103.600,345.176 103.600 C 345.409 103.600,345.600 103.836,345.600 104.125 C 345.600 104.413,345.969 105.045,346.420 105.530 C 346.872 106.014,347.131 106.588,346.997 106.805 C 346.863 107.022,346.913 107.200,347.110 107.200 C 347.868 107.200,347.932 106.667,347.297 105.654 C 345.964 103.531,345.263 102.775,345.008 103.187 M348.014 107.824 C 347.984 108.730,349.055 109.761,349.403 109.161 C 349.583 108.851,349.574 108.740,349.385 108.913 C 349.196 109.084,348.814 108.814,348.535 108.313 C 348.256 107.811,348.022 107.591,348.014 107.824 M49.230 111.364 C 48.869 111.799,48.880 111.998,49.281 112.229 C 49.566 112.393,49.668 112.382,49.506 112.204 C 49.345 112.025,49.525 111.642,49.906 111.352 C 50.288 111.063,50.397 110.820,50.149 110.813 C 49.901 110.806,49.487 111.054,49.230 111.364 M351.032 112.800 C 351.182 113.350,351.641 114.278,352.052 114.862 C 352.464 115.446,352.800 116.121,352.800 116.362 C 352.800 116.603,352.991 116.800,353.224 116.800 C 353.457 116.800,353.549 116.960,353.428 117.155 C 353.307 117.350,353.477 117.732,353.804 118.004 C 354.218 118.347,354.400 118.361,354.400 118.049 C 354.400 117.802,354.258 117.600,354.085 117.600 C 353.912 117.600,353.740 117.198,353.703 116.706 C 353.666 116.214,353.448 115.749,353.218 115.673 C 352.988 115.596,352.800 115.298,352.800 115.009 C 352.800 114.721,352.519 114.378,352.175 114.246 C 351.831 114.114,351.645 113.851,351.762 113.662 C 351.879 113.473,351.701 112.976,351.366 112.559 C 350.789 111.838,350.772 111.850,351.032 112.800 M354.800 120.000 C 354.800 120.220,354.980 120.400,355.200 120.400 C 355.420 120.400,355.579 120.535,355.553 120.700 C 355.527 120.865,355.549 121.135,355.603 121.300 C 355.656 121.465,355.723 121.780,355.750 122.000 C 355.802 122.415,356.369 122.565,356.441 122.183 C 356.464 122.063,356.262 121.433,355.993 120.783 C 355.522 119.645,354.800 119.171,354.800 120.000 M357.412 124.517 C 357.241 124.912,357.213 125.347,357.351 125.484 C 357.757 125.890,358.084 125.320,357.897 124.531 C 357.732 123.833,357.710 123.832,357.412 124.517 M358.119 127.190 C 358.571 128.388,358.886 128.454,359.044 127.384 C 359.091 127.058,358.803 126.616,358.402 126.401 C 357.735 126.044,357.711 126.110,358.119 127.190 M359.209 129.076 C 359.204 129.338,359.392 129.672,359.627 129.817 C 359.862 129.962,359.963 130.320,359.851 130.611 C 359.739 130.903,359.905 131.355,360.219 131.616 C 360.534 131.877,360.677 132.295,360.537 132.545 C 360.397 132.795,360.534 132.753,360.841 132.450 C 361.253 132.045,361.274 131.854,360.922 131.724 C 360.660 131.627,360.522 131.335,360.615 131.074 C 360.709 130.813,360.433 130.150,360.002 129.600 C 359.571 129.050,359.214 128.814,359.209 129.076 M361.459 134.704 C 361.212 135.105,362.320 136.613,362.632 136.301 C 362.765 136.169,362.754 135.687,362.610 135.230 C 362.343 134.391,361.805 134.145,361.459 134.704 M364.400 142.124 C 364.400 142.496,364.591 142.800,364.824 142.800 C 365.057 142.800,365.144 142.968,365.017 143.172 C 364.891 143.377,364.970 143.658,365.193 143.796 C 365.799 144.170,365.661 143.114,364.987 142.224 C 364.475 141.546,364.400 141.534,364.400 142.124 M366.117 147.840 C 366.350 148.599,366.683 149.077,366.857 148.903 C 367.292 148.468,366.838 146.900,366.207 146.658 C 365.801 146.502,365.782 146.750,366.117 147.840 M367.200 150.333 C 367.200 150.810,367.364 151.200,367.565 151.200 C 367.971 151.200,367.911 150.177,367.478 149.745 C 367.325 149.592,367.200 149.857,367.200 150.333 M32.262 151.531 C 31.483 152.392,31.420 152.800,32.067 152.800 C 32.323 152.800,32.413 152.680,32.266 152.532 C 32.119 152.385,32.297 151.935,32.661 151.532 C 33.026 151.130,33.234 150.800,33.124 150.800 C 33.014 150.800,32.626 151.129,32.262 151.531 M367.957 153.129 C 368.271 153.348,368.422 153.873,368.303 154.329 C 368.155 154.893,368.252 155.078,368.620 154.937 C 369.282 154.683,368.776 153.109,367.962 152.890 C 367.483 152.761,367.482 152.797,367.957 153.129 M302.577 155.500 C 323.938 187.912,323.143 234.706,300.720 264.800 C 278.504 294.617,239.869 285.836,226.368 247.900 C 225.345 245.024,225.172 244.913,222.797 245.610 C 219.241 246.653,211.020 248.055,207.400 248.237 C 205.200 248.347,202.635 248.530,201.700 248.643 L 200.000 248.849 200.000 307.550 L 200.000 366.250 203.944 370.125 C 208.034 374.144,210.359 375.214,211.055 373.400 C 211.327 372.692,212.630 372.601,213.038 373.262 C 213.216 373.549,213.148 373.615,212.859 373.436 C 212.603 373.278,212.132 373.411,211.811 373.732 C 211.301 374.242,211.339 374.344,212.114 374.552 C 213.418 374.901,213.524 374.870,213.781 374.061 C 213.968 373.470,214.327 373.353,215.564 373.476 C 216.594 373.579,217.317 373.425,217.727 373.016 C 218.467 372.275,219.340 372.201,219.083 372.900 C 218.983 373.175,218.698 373.355,218.450 373.300 C 218.203 373.245,218.000 373.380,218.000 373.600 C 218.000 373.820,218.810 374.000,219.800 374.000 C 221.152 374.000,221.600 373.847,221.600 373.386 C 221.600 372.903,221.765 372.860,222.374 373.186 C 223.359 373.713,225.078 373.721,225.400 373.200 C 225.550 372.957,224.982 372.800,223.957 372.800 C 223.027 372.800,222.392 372.675,222.544 372.522 C 222.697 372.370,223.553 372.288,224.448 372.341 C 225.342 372.394,226.372 372.203,226.737 371.918 C 227.330 371.455,227.342 371.474,226.851 372.100 C 226.348 372.741,226.433 372.799,227.851 372.794 C 228.998 372.789,229.244 372.687,228.800 372.400 C 228.287 372.069,228.302 372.011,228.900 372.006 C 229.285 372.003,229.600 371.820,229.600 371.600 C 229.600 371.057,232.530 371.090,233.080 371.640 C 233.329 371.889,233.907 371.956,234.413 371.796 C 235.023 371.602,235.152 371.417,234.819 371.212 C 234.485 371.005,234.594 370.843,235.167 370.693 C 235.626 370.573,235.900 370.638,235.777 370.837 C 235.654 371.037,236.001 371.200,236.549 371.200 C 237.211 371.200,237.636 370.917,237.813 370.359 C 238.057 369.591,238.278 369.540,240.340 369.777 C 242.052 369.972,242.455 369.927,242.000 369.588 C 241.537 369.242,241.742 369.197,242.900 369.388 C 244.025 369.574,244.400 369.499,244.400 369.087 C 244.400 368.710,244.806 368.576,245.700 368.660 C 246.842 368.766,246.878 368.742,246.000 368.464 L 245.000 368.148 246.086 367.932 C 246.683 367.813,247.234 367.902,247.310 368.129 C 247.396 368.388,247.662 368.406,248.024 368.177 C 248.341 367.976,248.915 367.787,249.300 367.756 C 250.526 367.658,250.619 367.552,249.800 367.190 C 249.255 366.948,249.574 366.904,250.800 367.050 C 251.983 367.191,252.417 367.136,252.066 366.888 C 251.633 366.582,251.652 366.466,252.166 366.268 C 252.515 366.135,252.800 366.199,252.800 366.413 C 252.800 366.626,253.070 366.800,253.400 366.800 C 253.730 366.800,254.000 366.459,254.000 366.043 C 254.000 365.154,255.151 364.591,255.747 365.187 C 255.974 365.414,256.424 365.600,256.747 365.600 C 257.069 365.600,257.222 365.489,257.086 365.352 C 256.538 364.805,257.990 363.982,259.083 364.221 C 259.975 364.415,260.079 364.373,259.600 364.008 C 259.126 363.648,259.269 363.604,260.277 363.802 C 261.802 364.102,263.639 363.327,262.754 362.758 C 262.407 362.534,262.723 362.497,263.600 362.658 C 264.370 362.799,264.874 362.778,264.719 362.610 C 264.293 362.147,265.361 361.267,266.652 361.017 L 267.800 360.795 266.700 361.231 C 266.095 361.471,265.600 361.810,265.600 361.985 C 265.600 362.159,266.230 362.017,267.000 361.668 C 267.770 361.319,268.400 360.880,268.400 360.693 C 268.400 360.506,268.580 360.464,268.800 360.600 C 269.462 361.009,270.174 360.361,269.543 359.924 C 269.160 359.659,269.257 359.620,269.870 359.791 C 270.467 359.958,270.873 359.810,271.163 359.318 C 271.530 358.693,271.638 358.678,271.987 359.200 C 272.324 359.705,272.389 359.679,272.394 359.033 C 272.397 358.612,272.511 358.378,272.648 358.514 C 272.784 358.650,273.157 358.500,273.476 358.181 C 273.796 357.861,274.269 357.603,274.529 357.606 C 274.805 357.610,274.752 357.773,274.400 358.000 C 274.070 358.213,273.980 358.388,274.200 358.388 C 275.006 358.388,275.699 357.684,275.389 357.182 C 275.160 356.811,275.308 356.735,275.938 356.900 C 276.497 357.046,276.707 356.973,276.535 356.695 C 276.367 356.422,276.513 356.358,276.934 356.519 C 277.795 356.850,278.800 356.459,278.800 355.795 C 278.800 355.459,279.106 355.355,279.663 355.500 C 280.249 355.654,280.434 355.579,280.242 355.268 C 280.052 354.960,280.186 354.897,280.649 355.074 C 281.185 355.280,281.279 355.184,281.072 354.643 C 280.855 354.077,280.962 353.998,281.653 354.217 C 282.192 354.388,282.407 354.335,282.244 354.072 C 281.946 353.589,283.401 353.030,283.996 353.398 C 284.218 353.535,284.400 353.472,284.400 353.257 C 284.400 353.042,284.175 352.763,283.900 352.637 C 283.625 352.511,283.806 352.508,284.301 352.631 C 285.219 352.859,286.598 351.932,286.093 351.426 C 285.945 351.279,286.163 351.288,286.578 351.447 C 287.102 351.648,287.243 351.594,287.042 351.268 C 286.786 350.853,287.503 350.598,288.494 350.751 C 288.655 350.775,289.375 350.418,290.094 349.955 C 290.812 349.493,291.050 349.232,290.622 349.375 C 289.880 349.623,289.876 349.600,290.539 348.867 C 290.921 348.445,291.710 348.100,292.293 348.100 C 292.911 348.100,293.657 347.722,294.086 347.193 C 294.490 346.695,294.934 346.401,295.073 346.540 C 295.441 346.908,296.434 345.979,296.155 345.528 C 296.026 345.318,296.163 345.180,296.460 345.221 C 297.613 345.379,298.030 345.173,297.918 344.500 C 297.837 344.023,298.040 343.821,298.555 343.865 C 299.694 343.962,300.447 343.123,299.706 342.581 C 299.258 342.253,299.462 342.191,300.559 342.319 C 301.842 342.469,302.539 341.968,301.700 341.499 C 301.535 341.407,301.638 341.391,301.929 341.464 C 302.798 341.683,303.992 340.844,303.741 340.191 C 303.575 339.757,303.755 339.622,304.399 339.697 C 304.945 339.760,305.463 339.491,305.743 339.000 C 306.327 337.978,306.887 337.567,307.429 337.764 C 308.077 338.000,308.926 336.434,308.457 335.869 C 308.179 335.533,308.332 335.400,308.996 335.400 C 309.506 335.400,309.829 335.553,309.714 335.740 C 309.598 335.927,309.899 335.868,310.383 335.609 C 310.908 335.328,311.172 334.903,311.038 334.554 C 310.814 333.972,311.278 333.649,312.669 333.416 C 313.071 333.349,313.355 333.093,313.300 332.847 C 313.245 332.601,313.489 332.400,313.843 332.400 C 314.224 332.400,314.400 332.176,314.274 331.850 C 314.146 331.514,314.315 331.319,314.708 331.350 C 315.063 331.377,315.560 330.996,315.812 330.502 C 316.065 330.009,316.401 329.735,316.560 329.894 C 316.719 330.052,317.513 329.513,318.325 328.695 C 319.136 327.877,321.649 325.406,323.908 323.204 C 326.168 321.002,327.909 319.200,327.778 319.200 C 327.646 319.200,328.092 318.734,328.769 318.164 C 329.446 317.595,330.000 316.774,330.000 316.341 C 330.000 315.907,330.150 315.646,330.334 315.759 C 330.673 315.969,333.800 312.906,333.800 312.364 C 333.800 312.201,334.222 311.702,334.737 311.255 C 335.252 310.808,335.554 310.248,335.407 310.011 C 335.260 309.774,335.379 309.630,335.670 309.690 C 335.962 309.751,336.155 309.575,336.100 309.300 C 336.045 309.025,336.225 308.845,336.500 308.900 C 336.775 308.955,337.000 308.730,337.000 308.400 C 337.000 308.070,337.312 307.672,337.693 307.515 C 338.119 307.341,338.293 306.987,338.144 306.599 C 338.011 306.252,338.086 306.020,338.311 306.084 C 338.536 306.148,338.751 306.020,338.788 305.800 C 338.826 305.580,339.107 305.260,339.412 305.089 C 339.717 304.919,339.864 304.512,339.739 304.185 C 339.583 303.779,339.698 303.663,340.104 303.818 C 340.441 303.948,340.803 303.768,340.944 303.402 C 341.113 302.962,341.034 302.850,340.695 303.048 C 340.423 303.207,340.515 302.977,340.901 302.536 C 341.286 302.096,341.466 301.576,341.301 301.381 C 341.135 301.186,341.315 301.267,341.700 301.562 C 342.316 302.034,342.400 301.994,342.400 301.225 C 342.400 300.745,342.571 300.458,342.780 300.588 C 342.989 300.717,343.367 300.436,343.620 299.963 C 343.879 299.478,343.904 299.212,343.677 299.352 C 342.976 299.786,343.635 298.092,344.457 297.348 C 345.166 296.707,345.212 296.705,344.974 297.322 C 344.831 297.695,344.554 298.000,344.357 298.000 C 344.161 298.000,344.006 298.225,344.013 298.500 C 344.021 298.775,344.389 298.565,344.831 298.034 C 345.273 297.503,345.539 296.818,345.422 296.513 C 345.305 296.208,345.367 296.056,345.559 296.175 C 346.076 296.494,346.918 295.314,346.573 294.756 C 346.396 294.470,346.446 294.381,346.696 294.536 C 347.111 294.792,347.800 293.723,347.649 293.058 C 347.607 292.870,347.757 292.493,347.982 292.221 C 348.208 291.949,348.260 291.593,348.097 291.430 C 347.933 291.267,347.980 291.170,348.200 291.214 C 349.120 291.400,349.673 291.166,349.483 290.671 C 349.371 290.381,349.634 289.921,350.067 289.651 C 350.499 289.381,350.785 288.955,350.702 288.705 C 350.618 288.455,350.883 287.917,351.290 287.510 C 351.696 287.104,351.921 286.596,351.789 286.383 C 351.657 286.169,351.844 285.881,352.204 285.743 C 352.677 285.561,352.792 285.201,352.618 284.446 C 352.442 283.687,352.483 283.561,352.766 283.988 C 353.208 284.655,353.260 284.615,353.908 283.105 C 354.167 282.502,354.270 281.727,354.137 281.381 C 353.978 280.967,354.167 280.681,354.689 280.545 C 355.125 280.431,355.781 279.709,356.148 278.941 C 356.599 277.995,356.650 277.638,356.307 277.834 C 356.028 277.993,356.275 277.601,356.855 276.962 C 357.435 276.323,358.042 275.350,358.204 274.800 C 358.366 274.250,358.678 273.575,358.898 273.300 C 359.179 272.949,359.134 272.792,358.749 272.772 C 358.447 272.756,358.560 272.589,359.000 272.400 C 359.539 272.168,359.604 272.045,359.200 272.022 C 358.836 272.001,358.761 271.872,359.009 271.694 C 359.658 271.228,360.886 269.152,360.651 268.918 C 360.534 268.801,360.700 268.443,361.019 268.124 C 361.339 267.804,361.597 267.331,361.594 267.071 C 361.590 266.787,361.418 266.838,361.159 267.200 C 360.823 267.671,360.780 267.584,360.960 266.800 C 361.086 266.250,361.192 265.686,361.195 265.547 C 361.198 265.407,361.585 265.193,362.055 265.070 C 362.775 264.881,362.873 264.638,362.682 263.523 C 362.557 262.795,362.547 262.426,362.661 262.702 C 363.035 263.609,363.608 262.776,363.369 261.675 C 363.208 260.936,363.254 260.768,363.515 261.138 C 364.001 261.828,364.549 259.900,364.189 258.765 C 363.937 257.970,364.893 256.626,365.371 257.104 C 365.517 257.250,365.518 256.630,365.374 255.726 C 365.143 254.284,365.214 254.049,365.955 253.814 C 366.825 253.538,367.131 252.800,366.376 252.800 C 366.143 252.800,366.066 252.617,366.204 252.393 C 366.342 252.170,366.650 252.107,366.889 252.255 C 367.188 252.440,367.246 251.977,367.079 250.761 C 366.916 249.586,366.953 249.266,367.190 249.800 C 367.552 250.619,367.658 250.526,367.756 249.300 C 367.787 248.915,367.968 248.355,368.157 248.055 C 368.357 247.740,368.343 247.403,368.123 247.255 C 367.915 247.115,367.874 246.550,368.032 246.000 L 368.320 245.000 368.366 246.000 C 368.402 246.767,368.497 246.865,368.778 246.422 C 369.002 246.068,368.994 245.562,368.758 245.122 C 368.462 244.568,368.519 244.400,369.004 244.400 C 369.512 244.400,369.588 244.105,369.388 242.900 C 369.197 241.742,369.242 241.537,369.588 242.000 C 369.926 242.454,369.971 242.040,369.772 240.300 C 369.590 238.717,369.647 238.000,369.954 238.000 C 370.199 238.000,370.403 237.685,370.406 237.300 C 370.411 236.696,370.471 236.682,370.838 237.200 C 371.154 237.644,371.203 237.333,371.027 236.000 C 370.877 234.866,370.923 234.404,371.151 234.753 C 371.435 235.187,371.573 235.114,371.796 234.413 C 371.956 233.907,371.889 233.329,371.640 233.080 C 371.082 232.522,371.045 229.057,371.600 229.400 C 371.820 229.536,372.003 229.322,372.006 228.924 C 372.011 228.310,372.071 228.291,372.400 228.800 C 372.688 229.245,372.789 229.007,372.794 227.876 C 372.797 227.038,372.646 226.448,372.458 226.564 C 372.270 226.681,372.204 226.315,372.311 225.751 C 372.486 224.839,368.722 220.940,337.783 189.988 C 318.685 170.881,302.902 154.967,302.710 154.624 C 302.517 154.281,302.187 154.000,301.974 154.000 C 301.762 154.000,302.033 154.675,302.577 155.500 M368.683 156.396 C 368.797 156.833,369.050 157.092,369.245 156.972 C 369.811 156.623,369.656 155.600,369.037 155.600 C 368.673 155.600,368.548 155.880,368.683 156.396 M122.572 169.600 C 122.572 174.770,122.629 176.885,122.699 174.300 C 122.768 171.715,122.768 167.485,122.699 164.900 C 122.629 162.315,122.572 164.430,122.572 169.600 M140.172 169.600 C 140.172 174.770,140.229 176.885,140.299 174.300 C 140.368 171.715,140.368 167.485,140.299 164.900 C 140.229 162.315,140.172 164.430,140.172 169.600 M370.046 161.676 C 370.021 162.048,370.172 162.459,370.383 162.589 C 370.593 162.719,370.671 163.072,370.555 163.372 C 370.440 163.673,370.500 164.014,370.688 164.131 C 370.876 164.247,371.066 163.905,371.111 163.371 C 371.155 162.837,371.026 162.400,370.825 162.400 C 370.623 162.400,370.376 162.085,370.276 161.700 C 370.111 161.069,370.088 161.067,370.046 161.676 M28.800 166.024 C 28.800 166.257,28.622 166.337,28.405 166.203 C 28.178 166.063,28.111 166.223,28.247 166.579 C 28.587 167.463,29.200 167.348,29.200 166.400 C 29.200 165.960,29.110 165.600,29.000 165.600 C 28.890 165.600,28.800 165.791,28.800 166.024 M371.600 168.776 C 371.600 169.203,371.779 169.663,371.997 169.798 C 372.228 169.941,372.359 169.614,372.310 169.022 C 372.212 167.835,371.600 167.624,371.600 168.776 M372.368 171.100 C 372.186 172.775,372.225 173.600,372.487 173.600 C 372.659 173.600,372.800 172.970,372.800 172.200 C 372.800 171.015,372.468 170.171,372.368 171.100 M372.800 175.733 C 372.800 176.540,372.935 177.200,373.100 177.200 C 373.265 177.200,373.400 176.675,373.400 176.033 C 373.400 175.392,373.265 174.732,373.100 174.567 C 372.935 174.402,372.800 174.927,372.800 175.733 M26.616 177.250 C 26.784 177.779,26.681 178.244,26.343 178.480 C 25.903 178.788,25.914 178.830,26.400 178.700 C 27.105 178.510,27.471 176.400,26.800 176.400 C 26.519 176.400,26.449 176.724,26.616 177.250 M373.421 180.100 C 373.177 180.893,373.304 182.000,373.640 182.000 C 373.809 182.000,373.931 181.460,373.912 180.800 C 373.877 179.539,373.680 179.259,373.421 180.100 M142.492 189.500 L 142.400 198.800 151.700 198.708 L 161.000 198.616 151.907 198.500 L 142.815 198.385 142.700 189.293 L 142.584 180.200 142.492 189.500 M102.168 189.800 C 102.168 194.200,102.226 196.055,102.298 193.921 C 102.370 191.788,102.370 188.188,102.299 185.921 C 102.227 183.655,102.168 185.400,102.168 189.800 M373.606 187.113 C 373.615 188.716,374.223 189.512,374.539 188.334 C 374.920 186.910,374.854 186.506,374.200 186.255 C 373.757 186.085,373.602 186.309,373.606 187.113 M24.800 193.800 C 24.800 194.130,24.980 194.400,25.200 194.400 C 25.420 194.400,25.600 194.130,25.600 193.800 C 25.600 193.470,25.420 193.200,25.200 193.200 C 24.980 193.200,24.800 193.470,24.800 193.800 M374.505 200.000 C 374.493 203.850,374.614 206.100,374.795 205.400 C 375.187 203.886,375.201 196.198,374.816 194.600 C 374.657 193.940,374.517 196.370,374.505 200.000 M101.999 198.500 C 102.000 198.665,106.185 198.763,111.300 198.719 C 120.613 198.637,119.532 198.497,108.099 198.303 C 104.744 198.246,101.999 198.335,101.999 198.500 M122.492 210.100 L 122.584 219.400 122.700 210.300 L 122.815 201.200 131.400 201.200 L 139.985 201.200 140.100 210.300 L 140.216 219.400 140.308 210.100 L 140.400 200.800 131.400 200.800 L 122.400 200.800 122.492 210.100 M181.265 204.676 C 177.926 206.321,179.162 211.600,182.885 211.600 C 186.656 211.600,187.683 206.029,184.181 204.566 C 182.561 203.889,182.887 203.877,181.265 204.676 M198.465 204.675 C 196.134 205.826,195.707 208.568,197.569 210.431 C 199.875 212.736,203.600 211.119,203.600 207.812 C 203.600 206.456,202.138 204.400,201.174 204.400 C 201.004 204.400,200.626 204.313,200.333 204.208 C 200.040 204.102,199.199 204.312,198.465 204.675 M215.703 204.673 C 213.237 205.928,212.823 208.484,214.769 210.431 C 216.235 211.897,217.926 211.970,219.478 210.635 C 222.604 207.946,219.355 202.815,215.703 204.673 M24.800 206.200 C 24.800 206.530,24.980 206.800,25.200 206.800 C 25.420 206.800,25.600 206.530,25.600 206.200 C 25.600 205.870,25.420 205.600,25.200 205.600 C 24.980 205.600,24.800 205.870,24.800 206.200 M373.823 211.668 C 373.409 213.174,373.658 214.068,374.368 213.624 C 374.815 213.344,374.849 212.985,374.526 211.935 L 374.117 210.600 373.823 211.668 M373.293 218.980 C 373.249 219.519,373.362 220.053,373.546 220.166 C 373.729 220.280,373.894 219.839,373.913 219.186 C 373.953 217.763,373.409 217.582,373.293 218.980 M26.000 219.400 C 26.000 219.730,26.180 220.000,26.400 220.000 C 26.620 220.000,26.800 219.730,26.800 219.400 C 26.800 219.070,26.620 218.800,26.400 218.800 C 26.180 218.800,26.000 219.070,26.000 219.400 M372.800 223.757 C 372.800 224.918,372.955 225.552,373.201 225.399 C 373.598 225.154,373.458 222.525,373.025 222.092 C 372.901 221.968,372.800 222.717,372.800 223.757 M371.867 230.267 C 371.720 230.413,371.600 230.983,371.600 231.533 C 371.600 232.753,372.113 232.349,372.295 230.985 C 372.431 229.972,372.330 229.803,371.867 230.267 M28.232 233.460 C 28.094 233.820,28.075 234.209,28.191 234.324 C 28.306 234.439,28.403 234.278,28.406 233.967 C 28.411 233.500,28.481 233.506,28.800 234.000 C 29.134 234.517,29.189 234.507,29.194 233.924 C 29.202 232.985,28.538 232.664,28.232 233.460 M28.800 236.800 C 28.800 237.240,28.942 237.600,29.115 237.600 C 29.288 237.600,29.457 237.240,29.490 236.800 C 29.523 236.360,29.381 236.000,29.175 236.000 C 28.969 236.000,28.800 236.360,28.800 236.800 M370.000 239.224 C 370.000 239.677,370.180 239.936,370.400 239.800 C 370.620 239.664,370.800 239.293,370.800 238.976 C 370.800 238.659,370.620 238.400,370.400 238.400 C 370.180 238.400,370.000 238.771,370.000 239.224 M32.909 251.191 C 32.943 251.636,33.112 252.000,33.285 252.000 C 33.727 252.000,33.679 250.896,33.224 250.615 C 33.018 250.487,32.876 250.747,32.909 251.191 M34.515 256.276 C 34.370 256.655,34.465 257.022,34.731 257.110 C 34.991 257.197,35.103 257.433,34.979 257.634 C 34.855 257.835,34.943 258.000,35.176 258.000 C 35.726 258.000,35.723 257.324,35.173 256.983 C 34.938 256.838,34.842 256.467,34.960 256.160 C 35.078 255.852,35.085 255.600,34.975 255.600 C 34.865 255.600,34.658 255.904,34.515 256.276 M48.216 286.373 C 48.071 286.608,48.143 286.800,48.376 286.800 C 48.609 286.800,48.800 287.070,48.800 287.400 C 48.800 287.730,48.986 288.000,49.214 288.000 C 49.483 288.000,49.465 287.685,49.160 287.100 C 48.532 285.894,48.519 285.884,48.216 286.373 M66.000 312.089 C 66.000 312.857,67.047 313.772,67.355 313.273 C 67.479 313.072,67.225 312.585,66.791 312.191 C 66.125 311.589,66.000 311.573,66.000 312.089 M85.632 331.830 C 85.589 332.414,87.531 334.202,87.855 333.878 C 88.204 333.529,87.233 332.400,86.584 332.400 C 86.300 332.400,85.976 332.175,85.865 331.900 C 85.754 331.625,85.649 331.594,85.632 331.830 M109.036 349.142 C 108.920 349.329,109.275 349.688,109.825 349.939 C 110.754 350.362,110.795 350.337,110.398 349.597 C 109.949 348.757,109.389 348.570,109.036 349.142 M129.200 359.500 C 129.200 359.669,129.560 360.032,130.000 360.307 C 130.440 360.582,130.800 360.669,130.800 360.500 C 130.800 360.331,130.440 359.968,130.000 359.693 C 129.560 359.418,129.200 359.331,129.200 359.500 M133.600 361.619 C 133.600 362.103,134.086 362.342,134.639 362.130 C 135.462 361.814,135.323 361.371,134.400 361.371 C 133.960 361.371,133.600 361.483,133.600 361.619 M162.237 370.551 C 162.397 370.969,162.840 371.168,163.431 371.089 C 164.673 370.923,165.082 370.489,163.913 370.577 C 163.411 370.615,162.771 370.475,162.491 370.267 C 162.115 369.986,162.048 370.061,162.237 370.551 M238.400 370.400 C 238.400 370.620,238.659 370.800,238.976 370.800 C 239.293 370.800,239.664 370.620,239.800 370.400 C 239.936 370.180,239.677 370.000,239.224 370.000 C 238.771 370.000,238.400 370.180,238.400 370.400 M165.867 371.067 C 165.420 371.513,165.568 372.000,166.151 372.000 C 166.454 372.000,166.940 371.685,167.232 371.300 C 167.682 370.704,167.678 370.675,167.201 371.100 C 166.531 371.697,165.851 371.765,166.200 371.200 C 166.480 370.747,166.270 370.663,165.867 371.067 M167.748 371.882 C 168.224 372.357,170.097 372.481,169.811 372.018 C 169.669 371.788,169.083 371.600,168.510 371.600 C 167.936 371.600,167.593 371.727,167.748 371.882 M230.189 372.018 C 230.028 372.279,230.315 372.385,230.950 372.300 C 232.366 372.111,232.760 371.600,231.490 371.600 C 230.917 371.600,230.331 371.788,230.189 372.018 M187.000 373.919 L 188.200 374.117 187.200 374.439 L 186.200 374.761 187.169 374.681 C 188.730 374.551,188.697 373.590,187.133 373.660 L 185.800 373.720 187.000 373.919 M214.900 374.276 C 215.285 374.376,215.915 374.376,216.300 374.276 C 216.685 374.175,216.370 374.093,215.600 374.093 C 214.830 374.093,214.515 374.175,214.900 374.276 M195.201 374.900 C 195.200 375.293,203.849 375.198,205.400 374.788 C 206.122 374.597,204.329 374.496,200.901 374.535 C 197.766 374.571,195.201 374.735,195.201 374.900 M207.000 374.800 C 206.864 375.020,207.023 375.200,207.353 375.200 C 207.683 375.200,208.064 375.020,208.200 374.800 C 208.336 374.580,208.177 374.400,207.847 374.400 C 207.517 374.400,207.136 374.580,207.000 374.800 " stroke="none" fill="#7c9dc7" fill-rule="evenodd"></path><path id="path3" d="M264.679 160.553 C 252.215 165.200,255.874 183.710,269.055 182.689 C 280.278 181.821,283.474 166.813,273.582 161.429 C 271.045 160.048,267.080 159.658,264.679 160.553 M284.825 179.164 C 273.391 183.801,276.671 200.800,289.000 200.800 C 301.136 200.800,304.510 184.512,293.441 179.358 C 290.935 178.191,287.420 178.112,284.825 179.164 M264.482 197.133 C 253.658 200.997,254.591 216.411,265.807 219.018 C 272.863 220.658,279.609 215.114,279.596 207.685 C 279.583 200.120,271.644 194.577,264.482 197.133 " stroke="none" fill="#d5c772" fill-rule="evenodd"></path><path id="path4" d="M197.305 25.487 C 197.914 25.579,198.814 25.577,199.305 25.482 C 199.797 25.387,199.300 25.311,198.200 25.314 C 197.100 25.317,196.697 25.395,197.305 25.487 M200.414 26.774 C 200.134 27.296,200.000 45.470,200.000 82.774 L 200.000 138.000 213.199 138.000 L 226.398 138.000 229.299 136.486 C 234.137 133.961,238.669 132.357,244.400 131.140 C 249.895 129.974,260.603 129.861,265.091 130.922 C 266.682 131.298,268.122 131.576,268.291 131.539 C 268.461 131.503,268.870 131.579,269.200 131.709 C 269.530 131.839,271.484 132.505,273.542 133.189 C 281.438 135.814,288.671 140.309,294.798 146.400 C 299.139 150.715,301.572 153.494,301.272 153.795 C 301.159 153.908,301.236 154.000,301.443 154.000 C 301.651 154.000,317.373 169.560,336.383 188.578 C 355.393 207.597,371.073 223.079,371.228 222.983 C 371.383 222.887,371.485 223.102,371.455 223.461 C 371.425 223.820,371.648 224.201,371.950 224.307 C 372.289 224.426,372.425 224.289,372.304 223.950 C 372.196 223.648,372.298 223.040,372.531 222.600 C 373.056 221.606,373.357 218.361,372.851 219.143 C 372.658 219.441,372.399 219.523,372.276 219.324 C 372.153 219.125,372.218 218.700,372.420 218.381 C 372.622 218.061,372.808 217.980,372.834 218.200 C 372.859 218.420,373.024 218.150,373.200 217.600 C 373.701 216.035,373.650 214.090,373.100 213.833 C 372.700 213.647,372.700 213.553,373.100 213.367 C 373.375 213.238,373.600 212.958,373.600 212.743 C 373.600 212.528,373.420 212.464,373.200 212.600 C 372.980 212.736,372.800 212.492,372.800 212.057 C 372.800 211.622,373.025 211.192,373.300 211.100 C 373.883 210.905,374.031 203.200,373.451 203.200 C 373.259 203.200,373.349 202.895,373.651 202.523 C 374.008 202.084,374.028 201.950,373.708 202.142 C 373.344 202.361,373.236 201.972,373.294 200.648 C 373.342 199.538,373.529 198.953,373.786 199.106 C 374.014 199.242,373.960 199.058,373.667 198.696 C 373.353 198.308,373.246 197.686,373.407 197.179 C 373.984 195.361,373.954 189.612,373.365 189.022 C 372.652 188.309,372.599 187.032,373.300 187.453 C 373.640 187.657,373.624 187.537,373.251 187.077 C 372.854 186.587,372.821 186.257,373.131 185.883 C 373.683 185.218,373.349 182.492,372.627 181.770 C 372.298 181.441,372.170 180.843,372.313 180.307 L 372.555 179.400 372.838 180.400 C 373.106 181.350,373.122 181.355,373.160 180.500 C 373.182 180.005,373.380 179.600,373.600 179.600 C 373.820 179.600,374.000 179.409,374.000 179.176 C 374.000 178.943,373.820 178.864,373.600 179.000 C 373.380 179.136,373.200 178.967,373.200 178.624 C 373.200 178.281,373.041 178.000,372.847 178.000 C 372.475 178.000,371.865 176.466,371.982 175.825 C 372.350 173.802,372.340 172.000,371.960 172.000 C 371.715 172.000,371.618 172.270,371.745 172.600 C 371.871 172.930,371.801 173.200,371.587 173.200 C 371.374 173.200,371.200 172.491,371.200 171.624 C 371.200 170.757,371.017 169.934,370.793 169.796 C 370.570 169.658,370.499 169.364,370.635 169.144 C 370.995 168.561,371.056 163.641,370.700 163.861 C 370.535 163.964,370.400 163.687,370.400 163.246 C 370.400 162.806,370.000 162.165,369.511 161.823 C 369.022 161.480,368.853 161.200,369.135 161.200 C 369.417 161.200,369.538 161.024,369.405 160.808 C 369.272 160.593,369.335 160.095,369.545 159.703 C 369.811 159.206,369.756 158.754,369.364 158.218 C 369.054 157.794,368.800 157.111,368.800 156.700 C 368.800 156.259,368.620 156.064,368.360 156.225 C 368.069 156.405,368.082 156.193,368.400 155.600 C 368.718 155.007,368.731 154.795,368.440 154.975 C 368.027 155.231,367.810 154.683,367.981 153.815 C 368.022 153.604,367.729 153.180,367.328 152.874 C 366.641 152.348,366.647 152.331,367.433 152.564 C 368.002 152.733,368.267 152.632,368.267 152.244 C 368.267 151.932,368.067 151.753,367.824 151.846 C 367.581 151.940,367.176 151.472,366.925 150.808 C 366.675 150.144,366.634 149.600,366.835 149.600 C 367.036 149.600,367.200 149.409,367.200 149.176 C 367.200 148.943,367.039 148.852,366.843 148.974 C 366.646 149.095,366.366 148.718,366.219 148.135 C 366.047 147.448,366.137 146.959,366.477 146.744 C 366.842 146.513,366.856 146.410,366.524 146.406 C 366.262 146.403,365.936 146.580,365.800 146.800 C 365.664 147.020,365.338 147.197,365.076 147.194 C 364.739 147.190,364.750 147.093,365.116 146.861 C 365.505 146.613,365.529 146.265,365.213 145.433 C 364.983 144.828,364.896 144.168,365.021 143.966 C 365.145 143.765,364.967 143.600,364.624 143.600 C 364.281 143.600,364.000 143.409,364.000 143.176 C 364.000 142.943,364.168 142.856,364.373 142.983 C 364.578 143.110,364.471 142.663,364.135 141.989 C 363.348 140.411,363.212 139.515,363.672 138.934 C 363.922 138.619,363.787 138.386,363.258 138.218 C 362.424 137.954,361.749 136.800,362.428 136.800 C 362.650 136.800,362.464 136.406,362.016 135.925 C 361.567 135.443,361.200 134.794,361.200 134.483 C 361.200 134.171,360.780 133.080,360.267 132.058 C 359.754 131.036,359.363 129.808,359.398 129.329 C 359.440 128.756,359.183 128.384,358.649 128.244 C 358.201 128.127,357.956 127.911,358.103 127.763 C 358.251 127.616,358.192 127.158,357.972 126.747 C 357.701 126.241,357.706 126.000,357.986 126.000 C 358.214 126.000,358.400 125.826,358.400 125.613 C 358.400 125.399,358.160 125.317,357.867 125.430 C 357.416 125.603,356.038 123.086,356.062 122.134 C 356.065 121.999,355.848 121.753,355.579 121.587 C 355.310 121.421,355.069 120.741,355.045 120.078 C 355.011 119.161,354.880 118.970,354.500 119.284 C 354.132 119.588,354.000 119.510,354.000 118.987 C 354.000 118.596,353.550 117.686,353.000 116.964 C 352.450 116.243,352.000 115.371,352.000 115.027 C 352.000 114.682,351.838 114.400,351.639 114.400 C 351.196 114.400,350.375 112.159,350.699 111.834 C 350.828 111.705,350.633 111.600,350.267 111.600 C 349.900 111.600,349.573 111.285,349.539 110.900 C 349.506 110.515,349.452 109.930,349.420 109.600 C 349.389 109.270,349.142 109.046,348.873 109.103 C 348.603 109.160,348.211 108.755,348.001 108.203 C 347.791 107.651,347.475 107.200,347.298 107.200 C 347.120 107.200,346.756 106.705,346.487 106.100 C 345.740 104.416,344.712 102.840,343.500 101.516 C 342.895 100.856,342.400 100.059,342.400 99.745 C 342.400 99.432,342.130 99.071,341.800 98.945 C 341.470 98.818,341.200 98.498,341.200 98.233 C 341.200 97.968,340.833 97.357,340.384 96.875 C 339.936 96.394,339.766 96.000,340.008 96.000 C 340.713 96.000,340.009 95.184,338.961 94.785 C 338.433 94.584,338.000 94.165,338.000 93.853 C 338.000 93.541,337.730 93.182,337.400 93.055 C 337.070 92.929,336.803 92.594,336.806 92.313 C 336.810 91.954,336.929 91.980,337.200 92.400 C 337.469 92.815,337.590 92.843,337.594 92.490 C 337.597 92.210,337.161 91.813,336.624 91.609 C 335.525 91.191,334.809 90.077,335.106 89.244 C 335.231 88.893,335.130 88.796,334.831 88.981 C 334.394 89.251,332.409 87.540,332.393 86.879 C 332.389 86.726,331.940 86.177,331.395 85.659 C 330.849 85.142,330.473 84.602,330.559 84.459 C 330.758 84.130,329.487 82.931,329.225 83.200 C 329.118 83.310,328.517 82.635,327.889 81.700 C 327.261 80.765,326.568 80.000,326.350 80.000 C 326.132 80.000,326.064 79.820,326.200 79.600 C 326.336 79.380,326.245 79.200,325.998 79.200 C 325.411 79.200,321.200 74.920,321.200 74.324 C 321.200 74.073,321.082 73.984,320.939 74.128 C 320.795 74.272,320.255 73.817,319.739 73.117 C 319.222 72.417,318.800 72.067,318.800 72.338 C 318.800 72.720,318.660 72.715,318.181 72.316 C 316.859 71.215,316.034 70.268,316.185 70.024 C 316.272 69.884,315.824 69.540,315.190 69.260 C 314.556 68.979,313.938 68.436,313.817 68.053 C 313.664 67.572,313.193 67.363,312.298 67.378 C 311.110 67.398,311.002 67.297,311.018 66.186 C 311.036 64.945,310.953 64.896,308.600 64.764 C 308.160 64.739,308.025 64.632,308.300 64.526 C 308.830 64.322,309.011 63.167,308.500 63.247 C 307.602 63.389,307.139 63.136,307.340 62.613 C 307.464 62.290,307.393 61.919,307.183 61.789 C 306.972 61.659,306.800 61.705,306.800 61.891 C 306.800 62.077,306.460 62.229,306.045 62.229 C 305.513 62.229,305.317 61.978,305.382 61.382 C 305.458 60.690,305.275 60.548,304.376 60.601 C 303.688 60.642,303.343 60.494,303.454 60.205 C 303.551 59.950,303.174 59.534,302.615 59.280 C 301.829 58.921,301.591 58.928,301.560 59.309 C 301.538 59.579,301.392 59.350,301.235 58.800 C 301.030 58.082,300.686 57.811,300.015 57.838 C 299.237 57.870,299.182 57.802,299.687 57.433 C 300.189 57.066,300.202 56.904,299.764 56.495 C 299.129 55.902,298.654 55.841,298.997 56.395 C 299.137 56.622,298.977 56.689,298.621 56.553 C 298.279 56.422,298.000 56.514,298.000 56.757 C 298.000 57.001,297.798 57.200,297.551 57.200 C 297.224 57.200,297.221 57.056,297.542 56.670 C 297.863 56.283,297.850 55.999,297.490 55.612 C 297.096 55.186,297.117 55.148,297.600 55.418 C 298.094 55.694,298.114 55.647,297.711 55.149 C 297.377 54.736,296.677 54.584,295.511 54.670 C 294.272 54.761,293.966 54.686,294.400 54.398 C 295.226 53.850,294.145 53.118,293.000 53.451 C 292.232 53.673,292.230 53.660,292.941 53.117 C 293.629 52.591,293.566 52.516,292.041 52.059 C 291.138 51.789,290.400 51.407,290.400 51.211 C 290.400 51.015,290.049 50.743,289.620 50.606 C 289.192 50.470,288.730 50.008,288.594 49.580 C 288.457 49.151,288.168 48.800,287.949 48.800 C 287.731 48.800,287.664 48.979,287.799 49.199 C 287.961 49.460,287.708 49.469,287.064 49.224 C 286.524 49.019,285.974 48.960,285.841 49.092 C 285.709 49.225,285.597 48.988,285.594 48.567 C 285.589 47.914,285.524 47.890,285.159 48.400 C 284.815 48.882,284.769 48.823,284.928 48.100 C 285.148 47.093,284.827 46.952,284.021 47.700 C 283.581 48.108,283.528 48.071,283.729 47.500 C 283.890 47.041,283.774 46.800,283.393 46.800 C 283.073 46.800,281.765 46.252,280.487 45.581 C 279.208 44.911,277.778 44.334,277.308 44.298 C 276.839 44.263,276.488 44.046,276.528 43.817 C 276.567 43.588,276.305 43.448,275.946 43.507 C 275.586 43.566,275.182 43.330,275.048 42.982 C 274.915 42.634,274.624 42.461,274.403 42.598 C 274.181 42.735,274.000 42.657,274.000 42.424 C 274.000 42.191,273.563 42.000,273.029 42.000 C 272.494 42.000,271.811 41.775,271.510 41.500 C 270.369 40.456,268.457 39.700,267.448 39.893 C 266.645 40.046,266.400 39.932,266.400 39.404 C 266.400 38.973,266.187 38.796,265.833 38.932 C 265.521 39.052,265.152 38.851,265.012 38.486 C 264.792 37.914,264.706 37.904,264.385 38.411 C 264.072 38.905,264.011 38.887,264.006 38.300 C 264.002 37.876,263.694 37.600,263.223 37.600 C 262.795 37.600,262.165 37.200,261.823 36.711 C 261.480 36.222,261.200 36.023,261.200 36.268 C 261.200 36.874,258.054 36.105,257.078 35.261 C 256.472 34.736,256.221 34.719,255.524 35.155 C 254.867 35.565,254.629 35.570,254.387 35.179 C 254.218 34.906,253.783 34.798,253.420 34.937 C 253.032 35.086,252.859 35.027,253.003 34.795 C 253.140 34.574,252.796 34.400,252.224 34.400 C 251.661 34.400,251.200 34.209,251.200 33.976 C 251.200 33.743,251.425 33.682,251.700 33.841 C 251.975 33.999,252.060 33.974,251.889 33.786 C 251.717 33.598,251.032 33.402,250.365 33.351 C 248.943 33.243,247.902 32.501,248.263 31.855 C 248.403 31.605,248.267 31.632,247.962 31.917 C 247.489 32.357,247.495 32.489,248.003 32.811 C 248.510 33.131,248.494 33.189,247.900 33.194 C 247.515 33.197,247.200 33.039,247.200 32.843 C 247.200 32.646,246.921 32.378,246.579 32.247 C 246.223 32.111,246.063 32.178,246.203 32.405 C 246.337 32.622,246.186 32.800,245.866 32.800 C 245.547 32.800,245.178 32.519,245.046 32.175 C 244.914 31.831,244.616 31.666,244.385 31.809 C 243.839 32.147,241.902 30.881,242.208 30.387 C 242.337 30.179,242.159 30.118,241.811 30.251 C 241.323 30.438,241.284 30.619,241.639 31.047 C 241.921 31.386,241.941 31.600,241.692 31.600 C 241.468 31.600,241.182 31.330,241.055 31.000 C 240.777 30.274,239.337 30.201,239.091 30.900 C 238.973 31.237,238.668 31.109,238.158 30.508 C 237.357 29.566,235.243 29.227,233.834 29.816 C 233.319 30.031,233.157 29.994,233.338 29.701 C 233.500 29.437,233.111 29.156,232.354 28.990 C 231.535 28.810,230.996 28.883,230.800 29.200 C 230.586 29.547,230.422 29.559,230.226 29.243 C 230.076 28.999,229.603 28.800,229.176 28.800 C 228.749 28.800,228.400 28.609,228.400 28.376 C 228.400 28.143,228.550 28.045,228.733 28.159 C 228.917 28.272,229.067 28.116,229.067 27.812 C 229.067 27.508,228.749 27.284,228.361 27.313 C 227.973 27.342,227.744 27.509,227.851 27.683 C 227.959 27.857,227.812 28.003,227.524 28.006 C 227.143 28.011,227.164 28.118,227.600 28.400 C 228.043 28.686,228.062 28.789,227.671 28.794 C 227.381 28.797,226.873 28.530,226.543 28.200 C 225.785 27.442,224.841 27.428,224.555 28.172 C 224.377 28.637,223.994 28.562,222.496 27.765 C 221.391 27.178,220.557 26.945,220.410 27.183 C 220.076 27.724,218.606 27.897,218.577 27.400 C 218.544 26.805,216.289 26.479,215.623 26.973 C 215.166 27.311,215.120 27.275,215.400 26.800 C 215.697 26.297,215.652 26.282,215.123 26.710 C 214.605 27.130,214.452 27.112,214.259 26.610 C 214.130 26.275,213.614 26.011,213.113 26.025 C 212.210 26.050,212.210 26.055,213.200 26.505 C 214.199 26.958,214.198 26.959,212.842 27.109 C 212.004 27.202,211.359 27.056,211.157 26.730 C 210.673 25.946,202.826 25.866,202.529 26.641 C 202.411 26.949,202.044 27.200,201.714 27.200 C 201.345 27.200,201.203 26.969,201.345 26.600 C 201.682 25.721,200.899 25.867,200.414 26.774 M114.400 47.549 C 114.400 47.768,114.026 48.065,113.570 48.210 C 113.113 48.354,112.827 48.561,112.934 48.668 C 113.042 48.775,113.621 48.605,114.222 48.290 C 114.917 47.926,115.148 47.615,114.857 47.435 C 114.606 47.280,114.400 47.331,114.400 47.549 M106.908 52.141 C 106.417 52.384,105.923 52.823,105.811 53.117 C 105.692 53.426,106.108 53.293,106.803 52.798 C 107.739 52.131,108.464 51.372,107.900 51.649 C 107.845 51.676,107.398 51.897,106.908 52.141 M37.711 134.781 C 37.823 135.210,37.750 135.647,37.548 135.751 C 37.345 135.855,37.410 135.894,37.690 135.839 C 38.342 135.709,38.613 134.000,37.981 134.000 C 37.708 134.000,37.593 134.330,37.711 134.781 M122.089 169.500 L 122.178 179.000 122.400 169.600 L 122.622 160.200 122.711 169.500 L 122.800 178.800 131.400 178.800 L 140.000 178.800 140.089 169.500 L 140.178 160.200 140.400 169.600 L 140.622 179.000 140.711 169.500 L 140.800 160.000 131.400 160.000 L 122.000 160.000 122.089 169.500 M244.546 178.836 C 236.158 181.267,233.766 192.253,240.361 198.058 C 247.482 204.326,258.769 199.144,258.787 189.600 C 258.801 182.271,251.564 176.802,244.546 178.836 M26.000 179.157 C 26.000 179.354,26.240 179.607,26.533 179.719 C 26.827 179.832,27.067 179.671,27.067 179.362 C 27.067 179.053,26.827 178.800,26.533 178.800 C 26.240 178.800,26.000 178.961,26.000 179.157 M142.714 189.227 L 142.829 198.371 152.015 198.486 L 161.201 198.600 161.200 189.543 C 161.200 178.731,162.473 179.946,151.220 180.023 L 142.600 180.082 142.714 189.227 M101.632 189.700 C 101.649 194.815,101.739 198.820,101.831 198.600 C 101.938 198.345,105.335 198.241,111.200 198.314 L 120.400 198.429 120.400 189.814 C 120.400 183.193,120.284 181.199,119.900 181.194 C 119.567 181.190,119.600 181.058,120.000 180.800 C 120.397 180.544,117.381 180.410,111.100 180.406 L 101.600 180.400 101.632 189.700 M102.298 193.921 C 102.226 196.055,102.168 194.200,102.168 189.800 C 102.168 185.400,102.227 183.655,102.299 185.921 C 102.370 188.188,102.370 191.788,102.298 193.921 M25.658 186.869 C 25.632 187.998,25.709 188.824,25.828 188.705 C 26.208 188.325,26.383 185.237,26.037 185.023 C 25.854 184.910,25.683 185.741,25.658 186.869 M25.344 200.000 C 25.344 202.090,25.412 202.945,25.494 201.900 C 25.576 200.855,25.576 199.145,25.494 198.100 C 25.412 197.055,25.344 197.910,25.344 200.000 M122.092 209.893 L 122.185 219.400 122.300 210.100 L 122.415 200.800 131.400 200.800 L 140.385 200.800 140.504 210.000 L 140.623 219.200 140.611 209.900 L 140.600 200.600 131.300 200.493 L 122.000 200.385 122.092 209.893 M122.800 210.200 L 122.800 219.200 131.400 219.200 L 140.000 219.200 140.000 210.200 L 140.000 201.200 131.400 201.200 L 122.800 201.200 122.800 210.200 M25.600 212.576 C 25.600 213.802,25.828 213.901,26.116 212.800 C 26.231 212.361,26.162 211.900,25.962 211.777 C 25.763 211.654,25.600 212.013,25.600 212.576 M317.714 215.400 C 317.717 216.500,317.795 216.903,317.887 216.295 C 317.979 215.686,317.977 214.786,317.882 214.295 C 317.787 213.803,317.711 214.300,317.714 215.400 M29.675 239.400 C 29.645 240.711,30.205 241.840,30.582 241.229 C 30.758 240.944,30.720 240.596,30.498 240.455 C 30.275 240.315,30.003 239.840,29.893 239.400 L 29.693 238.600 29.675 239.400 M174.631 245.149 C 174.494 245.371,173.924 246.779,173.364 248.276 C 161.816 279.184,133.118 291.721,110.500 275.738 C 107.658 273.730,113.752 279.956,154.800 320.998 L 200.000 366.192 200.000 307.524 L 200.000 248.856 200.900 248.715 C 201.395 248.637,199.100 248.450,195.800 248.297 C 188.810 247.975,179.217 246.413,175.540 244.999 C 175.178 244.860,174.769 244.927,174.631 245.149 M223.200 245.206 C 222.778 245.482,223.015 245.523,224.000 245.342 C 225.725 245.025,226.051 244.798,224.767 244.806 C 224.235 244.809,223.530 244.989,223.200 245.206 M207.200 248.000 C 205.011 248.268,205.009 248.270,206.800 248.300 C 207.790 248.316,209.500 248.190,210.600 248.018 C 213.272 247.602,210.565 247.588,207.200 248.000 M227.667 251.220 C 227.901 251.892,228.167 252.367,228.257 252.276 C 228.456 252.078,227.701 250.000,227.431 250.000 C 227.327 250.000,227.433 250.549,227.667 251.220 M229.600 255.200 C 230.266 256.520,230.902 257.600,231.012 257.600 C 231.122 257.600,230.666 256.520,230.000 255.200 C 229.334 253.880,228.698 252.800,228.588 252.800 C 228.478 252.800,228.934 253.880,229.600 255.200 M302.585 261.700 C 301.968 262.635,301.720 263.189,302.032 262.931 C 302.633 262.434,304.164 260.000,303.876 260.000 C 303.783 260.000,303.202 260.765,302.585 261.700 M234.362 263.129 C 234.605 263.584,235.001 264.077,235.242 264.226 C 235.556 264.420,235.554 264.262,235.238 263.671 C 234.995 263.216,234.599 262.723,234.358 262.574 C 234.044 262.380,234.046 262.538,234.362 263.129 M37.600 265.400 C 37.600 265.730,37.780 266.000,38.000 266.000 C 38.220 266.000,38.400 265.730,38.400 265.400 C 38.400 265.070,38.220 264.800,38.000 264.800 C 37.780 264.800,37.600 265.070,37.600 265.400 M298.019 267.700 C 296.505 269.452,296.310 269.781,297.365 268.800 C 298.745 267.516,300.644 265.200,300.316 265.200 C 300.240 265.200,299.206 266.325,298.019 267.700 M238.400 268.200 C 239.146 268.970,239.847 269.600,239.957 269.600 C 240.067 269.600,239.546 268.970,238.800 268.200 C 238.054 267.430,237.353 266.800,237.243 266.800 C 237.133 266.800,237.654 267.430,238.400 268.200 M242.800 272.600 C 243.546 273.370,244.247 274.000,244.357 274.000 C 244.467 274.000,243.946 273.370,243.200 272.600 C 242.454 271.830,241.753 271.200,241.643 271.200 C 241.533 271.200,242.054 271.830,242.800 272.600 M244.950 274.320 C 245.110 274.578,246.069 275.360,247.082 276.057 C 249.479 277.706,249.040 276.995,246.563 275.216 C 245.516 274.465,244.791 274.061,244.950 274.320 M43.488 277.500 C 43.238 277.971,44.280 279.718,44.550 279.281 C 44.683 279.066,44.515 278.661,44.177 278.381 C 43.685 277.973,43.666 277.805,44.081 277.541 C 44.446 277.310,44.459 277.210,44.124 277.206 C 43.862 277.203,43.576 277.335,43.488 277.500 M259.800 281.955 C 260.240 282.144,261.410 282.407,262.400 282.541 C 263.584 282.700,263.858 282.671,263.200 282.454 C 261.707 281.962,258.830 281.540,259.800 281.955 M46.000 282.315 C 46.000 282.556,46.192 282.872,46.427 283.017 C 46.662 283.162,46.758 283.533,46.640 283.840 C 46.522 284.148,46.589 284.400,46.789 284.400 C 47.552 284.400,47.553 283.668,46.792 282.790 C 46.356 282.288,46.000 282.075,46.000 282.315 M267.505 283.083 C 268.002 283.179,268.722 283.175,269.105 283.075 C 269.487 282.975,269.080 282.896,268.200 282.901 C 267.320 282.905,267.007 282.987,267.505 283.083 M47.396 285.207 C 47.260 285.426,47.438 285.717,47.792 285.852 C 48.653 286.183,48.843 285.914,48.181 285.304 C 47.839 284.989,47.552 284.953,47.396 285.207 M113.400 351.678 C 113.840 351.927,114.332 352.327,114.494 352.566 C 114.696 352.865,114.790 352.849,114.794 352.514 C 114.797 352.247,114.452 351.842,114.026 351.614 C 112.974 351.051,112.397 351.109,113.400 351.678 M200.000 369.275 C 200.000 372.807,200.222 373.643,201.073 373.316 C 201.407 373.188,201.840 373.335,202.034 373.642 C 202.308 374.075,202.389 374.082,202.394 373.676 C 202.398 373.359,202.597 373.275,202.900 373.463 C 203.175 373.633,204.448 373.807,205.729 373.849 C 207.010 373.891,207.995 373.897,207.917 373.863 C 207.839 373.828,206.026 372.094,203.887 370.008 L 200.000 366.216 200.000 369.275 M211.200 373.158 C 211.200 373.354,211.633 373.489,212.162 373.458 C 212.691 373.426,213.040 373.265,212.938 373.100 C 212.677 372.676,211.200 372.725,211.200 373.158 M197.100 374.682 C 197.595 374.778,198.405 374.778,198.900 374.682 C 199.395 374.587,198.990 374.509,198.000 374.509 C 197.010 374.509,196.605 374.587,197.100 374.682 " stroke="none" fill="#94b4dc" fill-rule="evenodd"></path></g></svg>